<?xml version="1.0" encoding="UTF-8" standalone="no"?>
<!-- Generator: Adobe Illustrator 18.0.0, SVG Export Plug-In . SVG Version: 6.00 Build 0)  -->

<svg
   xmlns:dc="http://purl.org/dc/elements/1.1/"
   xmlns:cc="http://creativecommons.org/ns#"
   xmlns:rdf="http://www.w3.org/1999/02/22-rdf-syntax-ns#"
   xmlns:svg="http://www.w3.org/2000/svg"
   xmlns="http://www.w3.org/2000/svg"
   xmlns:sodipodi="http://sodipodi.sourceforge.net/DTD/sodipodi-0.dtd"
   xmlns:inkscape="http://www.inkscape.org/namespaces/inkscape"
   version="1.1"
   x="0px"
   y="0px"
   viewBox="0 0 841.9 215"
   enable-background="new 0 0 841.9 215"
   xml:space="preserve"
   id="svg3336"
   inkscape:version="0.91 r13725"
   sodipodi:docname="ip.svg"><metadata
     id="metadata3524"><rdf:RDF><cc:Work
         rdf:about=""><dc:format>image/svg+xml</dc:format><dc:type
           rdf:resource="http://purl.org/dc/dcmitype/StillImage" /></cc:Work></rdf:RDF></metadata><defs
     id="defs3522" /><sodipodi:namedview
     pagecolor="#ffffff"
     bordercolor="#666666"
     borderopacity="1"
     objecttolerance="10"
     gridtolerance="10"
     guidetolerance="10"
     inkscape:pageopacity="0"
     inkscape:pageshadow="2"
     inkscape:window-width="1920"
     inkscape:window-height="1056"
     id="namedview3520"
     showgrid="false"
     inkscape:zoom="2.0477491"
     inkscape:cx="420.95001"
     inkscape:cy="107.5"
     inkscape:window-x="0"
     inkscape:window-y="24"
     inkscape:window-maximized="1"
     inkscape:current-layer="g3540" /><g
     id="Layer_31"
     display="none"><rect
       display="inline"
       fill="#414042"
       width="841.9"
       height="215"
       id="rect3339" /></g><g
     id="laptops"><g
       id="laptop_copy_4"><rect
         x="84.3"
         y="76.4"
         fill="#BCBEC0"
         width="100.9"
         height="65"
         id="rect3343" /><polygon
         fill="#939598"
         points="185.2,141.4 84.3,141.4 72.6,150.6 72.6,155.9 198.1,155.9 198.1,150.6   "
         id="polygon3345" /><rect
         x="92.1"
         y="83.4"
         fill="#939598"
         width="85.3"
         height="51.7"
         id="rect3347" /></g><g
       id="laptop_copy_5"><rect
         x="681.6"
         y="76.4"
         fill="#BCBEC0"
         width="100.9"
         height="65"
         id="rect3350" /><polygon
         fill="#939598"
         points="782.5,141.4 681.6,141.4 669.9,150.6 669.9,155.9 795.4,155.9 795.4,150.6   "
         id="polygon3352" /><rect
         x="689.4"
         y="83.4"
         fill="#939598"
         width="85.3"
         height="51.7"
         id="rect3354" /></g></g><g
     id="ips"><text
       transform="matrix(1 0 0 1 203.2478 74.3)"
       fill="#D1D3D4"
       font-family="'Roboto-Medium'"
       font-size="17"
       id="text3357">85.69.96.147</text>
<text
       transform="matrix(1 0 0 1 559.2963 74.3)"
       id="text3359"><tspan
         x="0"
         y="0"
         fill="#D1D3D4"
         font-family="'Roboto-Medium'"
         font-size="17"
         id="tspan3361">122</tspan><tspan
         x="29"
         y="0"
         fill="#D1D3D4"
         font-family="'Roboto-Medium'"
         font-size="17"
         id="tspan3363">.</tspan><tspan
         x="34.4"
         y="0"
         fill="#D1D3D4"
         font-family="'Roboto-Medium'"
         font-size="17"
         id="tspan3365">44.95.115</tspan></text>
</g><g
     id="IP"><g
       id="connections"><circle
         fill="#F1F2F2"
         cx="253.8"
         cy="118.6"
         r="15.3"
         id="circle3369" /><circle
         fill="#F1F2F2"
         cx="615.1"
         cy="118.6"
         r="15.3"
         id="circle3371" /><rect
         x="252.9"
         y="115.4"
         fill="#F1F2F2"
         width="362.2"
         height="6.5"
         id="rect3373" /></g><g
       id="arrows_copy"><g
         id="g3376"><line
           fill="#A7A9AC"
           x1="405.3"
           y1="98.3"
           x2="458.6"
           y2="98.3"
           id="line3378" /><g
           id="g3380"><line
             fill="none"
             stroke="#4CBEA2"
             stroke-width="5"
             stroke-miterlimit="10"
             x1="405.3"
             y1="98.3"
             x2="444.2"
             y2="98.3"
             id="line3382" /><g
             id="g3384"><polygon
               fill="#4CBEA2"
               points="441.3,108.2 458.6,98.3 441.3,88.3      "
               id="polygon3386" /></g></g></g><g
         id="g3388"><line
           fill="#A7A9AC"
           x1="458.6"
           y1="141.7"
           x2="405.3"
           y2="141.7"
           id="line3390" /><g
           id="g3392"><line
             fill="none"
             stroke="#4CBEA2"
             stroke-width="5"
             stroke-miterlimit="10"
             x1="458.6"
             y1="141.7"
             x2="419.6"
             y2="141.7"
             id="line3394" /><g
             id="g3396"><polygon
               fill="#4CBEA2"
               points="422.6,131.7 405.3,141.6 422.6,151.6      "
               id="polygon3398" /></g></g></g></g></g><g
     id="multiplicity"
     display="none"><path
       display="inline"
       fill="#F1F2F2"
       d="M615,103.1c-7.4,0-13.6,5.3-15,12.3c-41.3,2.6-58.7,15.9-71.7,25.9   c-11,8.5-19,14.6-37,11.2c-19.8-3.7-22.6-21-26-41.1c-1.1-6.8-2.3-13.9-4.4-20.6c5.3,3.4,11.9,6.1,18.9,6.1c1.3,0,2.7-0.1,4-0.3   c9.8-1.5,18.3-8.5,25.4-20.7c1.1,0.2,2.1,0.4,3.3,0.4c8.5,0,15.3-6.9,15.3-15.3s-6.9-15.3-15.3-15.3s-15.3,6.9-15.3,15.3   c0,4.8,2.2,9.1,5.7,12c-5.9,10-12.6,15.7-20.1,16.8c-15.6,2.4-30.3-15.3-30.4-15.5l0,0c-4.5-5.3-10.8-9.3-19.9-11.1   c-24.3-4.8-33.7,15.8-42.8,35.6c-6.8,14.8-13.4,29.1-25.7,34.4c-0.4,0.2-0.8,0.3-1.1,0.5c-5.6,2.1-12.3,2.5-20.7,0.3   c-10.1-2.6-16.2-7.4-19.8-12.8c19.6-2.9,32.4-8.5,38-16.8c4.6-6.8,4.4-15.1-0.6-24.6c-9-17.2-19.8-17.5-25.4-16.1   c-13.2,3.2-24,20.8-24.1,39.3c0,4.5,0.5,8.6,1.7,12.5c-14.7,1.4-30.4,1.3-42.9,0.7c-1.2-7.3-7.5-12.9-15.1-12.9   c-8.5,0-15.3,6.9-15.3,15.3s6.9,15.3,15.3,15.3c6.9,0,12.8-4.6,14.7-10.9c8.4,0.4,19.5,0.7,31,0.2c5.4-0.2,10.4-0.6,15.2-1   c4.9,9,13.7,15.5,25.7,18.6c11.7,3,20.8,1.9,28.1-1.7c9.4-3.4,26.6-7.5,35.2-0.1c5.9,5.1,6.7,14.8,5.3,24.8   c-8,0.5-14.3,7.2-14.3,15.3c0,8.5,6.9,15.3,15.3,15.3s15.3-6.9,15.3-15.3c0-6.4-3.9-11.8-9.4-14.2c2-14.7-0.6-25.2-7.7-31.3   c-7.3-6.3-17.9-6.6-27.2-5.1c6.2-7.7,10.8-17.5,15-26.8c8.7-19,16.3-35.3,35.1-31.6c20.8,4.1,23.9,22.8,27.2,42.6   c3.3,19.8,7,42.3,31.6,46.9c3.9,0.7,7.4,1.1,10.7,1.1c14.2,0,22.5-6.4,31.9-13.6c13-9.9,28.8-22,67.7-24.5   c1.7,6.6,7.7,11.4,14.8,11.4c8.5,0,15.3-6.9,15.3-15.3S623.5,103.1,615,103.1z M319,114.5c-1.5-4.2-1.9-8.4-1.8-11.6   c0.1-14.9,8.9-30.1,18.8-32.5c0.9-0.2,1.7-0.3,2.5-0.3c6.8,0,11.9,6.8,15.1,12.9c3.7,7.2,4.1,12.9,1,17.5   C349.3,108.2,335.3,112.4,319,114.5z"
       id="path3401" /></g><g
     id="dns"
     display="none"><g
       id="connections_copy_2"
       display="inline"><circle
         fill="#F1F2F2"
         cx="253.8"
         cy="118.4"
         r="15.3"
         id="circle3405" /><circle
         fill="#F1F2F2"
         cx="615"
         cy="118.4"
         r="15.3"
         id="circle3407" /><rect
         x="257.8"
         y="115.2"
         fill="#F1F2F2"
         width="357.2"
         height="6.5"
         id="rect3409" /></g><g
       id="arrows_copy_3"
       display="inline"><g
         id="g3412"><line
           fill="#A7A9AC"
           x1="327.9"
           y1="98"
           x2="381.2"
           y2="98"
           id="line3414" /><g
           id="g3416"><line
             fill="none"
             stroke="#4CBEA2"
             stroke-width="5"
             stroke-miterlimit="10"
             x1="327.9"
             y1="98"
             x2="366.8"
             y2="98"
             id="line3418" /><g
             id="g3420"><polygon
               fill="#4CBEA2"
               points="363.9,108 381.2,98 363.9,88.1      "
               id="polygon3422" /></g></g></g><g
         id="g3424"><line
           fill="#A7A9AC"
           x1="485.6"
           y1="98"
           x2="538.9"
           y2="98"
           id="line3426" /><g
           id="g3428"><line
             fill="none"
             stroke="#4CBEA2"
             stroke-width="5"
             stroke-miterlimit="10"
             x1="485.6"
             y1="98"
             x2="524.5"
             y2="98"
             id="line3430" /><g
             id="g3432"><polygon
               fill="#4CBEA2"
               points="521.6,108 538.9,98 521.6,88.1      "
               id="polygon3434" /></g></g></g><g
         id="g3436"><line
           fill="#A7A9AC"
           x1="381.2"
           y1="141.4"
           x2="327.9"
           y2="141.4"
           id="line3438" /><g
           id="g3440"><line
             fill="none"
             stroke="#4CBEA2"
             stroke-width="5"
             stroke-miterlimit="10"
             x1="381.2"
             y1="141.4"
             x2="342.2"
             y2="141.4"
             id="line3442" /><g
             id="g3444"><polygon
               fill="#4CBEA2"
               points="345.2,131.4 327.9,141.4 345.2,151.4      "
               id="polygon3446" /></g></g></g><g
         id="g3448"><line
           fill="#A7A9AC"
           x1="538.9"
           y1="141.4"
           x2="485.6"
           y2="141.4"
           id="line3450" /><g
           id="g3452"><line
             fill="none"
             stroke="#4CBEA2"
             stroke-width="5"
             stroke-miterlimit="10"
             x1="538.9"
             y1="141.4"
             x2="499.9"
             y2="141.4"
             id="line3454" /><g
             id="g3456"><polygon
               fill="#4CBEA2"
               points="502.8,131.4 485.6,141.4 502.8,151.4      "
               id="polygon3458" /></g></g></g><rect
         x="410.6"
         y="95.7"
         fill="#4CBEA2"
         width="42.6"
         height="45.5"
         id="rect3460" /></g></g><g
     id="read"
     display="none"><g
       id="connections_copy_3"
       display="inline"><circle
         fill="#F1F2F2"
         cx="253.8"
         cy="118.4"
         r="15.3"
         id="circle3464" /><circle
         fill="#F1F2F2"
         cx="615"
         cy="118.4"
         r="15.3"
         id="circle3466" /><circle
         fill="#F1F2F2"
         cx="431.9"
         cy="118.4"
         r="15.3"
         id="circle3468" /><rect
         x="252.8"
         y="115.2"
         fill="#F1F2F2"
         width="362.2"
         height="6.5"
         id="rect3470" /><text
         transform="matrix(1 0 0 1 388.3569 57.3)"
         fill="#4CBEA2"
         font-family="'Roboto-Medium'"
         font-size="19"
         id="text3472">I love you</text>
</g><g
       id="arrows_copy_4"
       display="inline"><g
         id="g3475"><line
           fill="#A7A9AC"
           x1="405.3"
           y1="88.9"
           x2="458.6"
           y2="88.9"
           id="line3477" /><g
           id="g3479"><line
             fill="none"
             stroke="#4CBEA2"
             stroke-width="5"
             stroke-miterlimit="10"
             x1="405.3"
             y1="88.9"
             x2="444.2"
             y2="88.9"
             id="line3481" /><g
             id="g3483"><polygon
               fill="#4CBEA2"
               points="441.3,98.9 458.6,88.9 441.3,79      "
               id="polygon3485" /></g></g></g></g></g><g
     id="encrypt"
     display="none"><g
       id="connections_copy_4"
       display="inline"><circle
         fill="#F1F2F2"
         cx="253.8"
         cy="118.4"
         r="15.3"
         id="circle3489" /><circle
         fill="#F1F2F2"
         cx="615"
         cy="118.4"
         r="15.3"
         id="circle3491" /><circle
         fill="#F1F2F2"
         cx="431.9"
         cy="118.4"
         r="15.3"
         id="circle3493" /><rect
         x="252.8"
         y="115.2"
         fill="#F1F2F2"
         width="362.2"
         height="6.5"
         id="rect3495" /><text
         transform="matrix(1 0 0 1 368.1044 57.3)"
         fill="#4CBEA2"
         font-family="'Roboto-Medium'"
         font-size="19"
         id="text3497">Aoias3xa2pp9</text>
<text
         transform="matrix(1 0 0 1 74.4094 57.3)"
         fill="#4CBEA2"
         font-family="'Roboto-Medium'"
         font-size="19"
         id="text3499">Aoias3xa2pp9</text>
<text
         transform="matrix(1 0 0 1 94.6617 33.9667)"
         fill="#3987C8"
         font-family="'Roboto-Medium'"
         font-size="19"
         id="text3501">I love you</text>
<text
         transform="matrix(1 0 0 1 671.7424 57.3)"
         fill="#4CBEA2"
         font-family="'Roboto-Medium'"
         font-size="19"
         id="text3503">Aoias3xa2pp9</text>
<text
         transform="matrix(1 0 0 1 691.9946 33.9667)"
         fill="#3987C8"
         font-family="'Roboto-Medium'"
         font-size="19"
         id="text3505">I love you</text>
</g><g
       id="arrows_copy_5"
       display="inline"><g
         id="g3508"><line
           fill="#A7A9AC"
           x1="405.3"
           y1="88.9"
           x2="458.6"
           y2="88.9"
           id="line3510" /><g
           id="g3512"><line
             fill="none"
             stroke="#4CBEA2"
             stroke-width="5"
             stroke-miterlimit="10"
             x1="405.3"
             y1="88.9"
             x2="444.2"
             y2="88.9"
             id="line3514" /><g
             id="g3516"><polygon
               fill="#4CBEA2"
               points="441.3,98.9 458.6,88.9 441.3,79      "
               id="polygon3518" /></g></g></g></g></g><g
     id="g3540"
     transform="translate(371.0703,2.3387529)"><path
       id="path3528"
       d="m 30.319328,26.609092 c -0.611318,0 -1.018863,0.407545 -1.018863,1.018863 l 0,4.075449 c 0,0.611318 0.419772,1.196145 0.827317,1.401955 l 30.757417,15.537652 c 0.611318,0.203773 1.438634,0.203773 1.846179,0 L 93.488796,33.105359 c 0.611318,-0.203772 1.018863,-0.790637 1.018863,-1.401955 l 0,-4.075449 c 0,-0.611318 -0.407545,-1.018863 -1.018863,-1.018863 l -63.169468,0 z m -0.509431,12.544235 c -0.28732,0 -0.509432,0.242489 -0.509432,0.700977 l 0,30.565872 c 0,0.611317 0.407545,1.018862 1.018863,1.018862 l 63.169468,0 c 0.611318,0 1.018863,-0.407545 1.018863,-1.018862 l 0,-30.565872 c 0,-0.611317 -0.419772,-0.839543 -0.827317,-0.637808 L 62.922924,54.754147 c -0.611317,0.203773 -1.438634,0.203773 -1.846178,0 L 30.127782,39.216496 c -0.101887,-0.05094 -0.222112,-0.06317 -0.317885,-0.06317 z"
       inkscape:connector-curvature="0"
       style="fill:#b7b7c8" /></g></svg>