<?xml version="1.0" encoding="UTF-8" standalone="no"?>
<svg
   xmlns:dc="http://purl.org/dc/elements/1.1/"
   xmlns:cc="http://creativecommons.org/ns#"
   xmlns:rdf="http://www.w3.org/1999/02/22-rdf-syntax-ns#"
   xmlns:svg="http://www.w3.org/2000/svg"
   xmlns="http://www.w3.org/2000/svg"
   xmlns:sodipodi="http://sodipodi.sourceforge.net/DTD/sodipodi-0.dtd"
   xmlns:inkscape="http://www.inkscape.org/namespaces/inkscape"
   height="315.90808"
   width="722.79999"
   id="svg9082"
   xml:space="preserve"
   enable-background="new 0 0 841.9 215"
   viewBox="0 0 722.79997 315.90808"
   y="0px"
   x="0px"
   version="1.1"
   inkscape:version="0.91 r13725"
   sodipodi:docname="multiplicity_routers_local.svg"><sodipodi:namedview
     pagecolor="#ffffff"
     bordercolor="#666666"
     borderopacity="1"
     objecttolerance="10"
     gridtolerance="10"
     guidetolerance="10"
     inkscape:pageopacity="0"
     inkscape:pageshadow="2"
     inkscape:window-width="2560"
     inkscape:window-height="1416"
     id="namedview9628"
     showgrid="false"
     inkscape:zoom="2.0817975"
     inkscape:cx="248.85389"
     inkscape:cy="179.53711"
     inkscape:window-x="0"
     inkscape:window-y="24"
     inkscape:window-maximized="1"
     inkscape:current-layer="svg9082" /><metadata
     id="metadata9270"><rdf:RDF><cc:Work
         rdf:about=""><dc:format>image/svg+xml</dc:format><dc:type
           rdf:resource="http://purl.org/dc/dcmitype/StillImage" /><dc:title></dc:title></cc:Work></rdf:RDF></metadata><defs
     id="defs9268"><marker
       inkscape:stockid="TriangleInL"
       orient="auto"
       refY="0.0"
       refX="0.0"
       id="marker12030"
       style="overflow:visible"
       inkscape:isstock="true"><path
         id="path12032"
         d="M 5.77,0.0 L -2.88,5.0 L -2.88,-5.0 L 5.77,0.0 z "
         style="fill-rule:evenodd;stroke:#000000;stroke-width:1pt;stroke-opacity:1;fill:#000000;fill-opacity:1"
         transform="scale(-0.8)" /></marker><marker
       inkscape:stockid="TriangleOutL"
       orient="auto"
       refY="0.0"
       refX="0.0"
       id="TriangleOutL"
       style="overflow:visible"
       inkscape:isstock="true"><path
         id="path10418"
         d="M 5.77,0.0 L -2.88,5.0 L -2.88,-5.0 L 5.77,0.0 z "
         style="fill-rule:evenodd;stroke:#000000;stroke-width:1pt;stroke-opacity:1;fill:#000000;fill-opacity:1"
         transform="scale(0.8)" /></marker><marker
       inkscape:stockid="TriangleInL"
       orient="auto"
       refY="0.0"
       refX="0.0"
       id="TriangleInL"
       style="overflow:visible"
       inkscape:isstock="true"><path
         id="path10409"
         d="M 5.77,0.0 L -2.88,5.0 L -2.88,-5.0 L 5.77,0.0 z "
         style="fill-rule:evenodd;stroke:#000000;stroke-width:1pt;stroke-opacity:1;fill:#000000;fill-opacity:1"
         transform="scale(-0.8)" /></marker><marker
       inkscape:stockid="Arrow2Lend"
       orient="auto"
       refY="0.0"
       refX="0.0"
       id="Arrow2Lend"
       style="overflow:visible;"
       inkscape:isstock="true"><path
         id="path10297"
         style="fill-rule:evenodd;stroke-width:0.625;stroke-linejoin:round;stroke:#000000;stroke-opacity:1;fill:#000000;fill-opacity:1"
         d="M 8.7185878,4.0337352 L -2.2072895,0.016013256 L 8.7185884,-4.0017078 C 6.9730900,-1.6296469 6.9831476,1.6157441 8.7185878,4.0337352 z "
         transform="scale(1.1) rotate(180) translate(1,0)" /></marker><marker
       inkscape:stockid="Arrow2Lstart"
       orient="auto"
       refY="0.0"
       refX="0.0"
       id="Arrow2Lstart"
       style="overflow:visible"
       inkscape:isstock="true"><path
         id="path10294"
         style="fill-rule:evenodd;stroke-width:0.625;stroke-linejoin:round;stroke:#000000;stroke-opacity:1;fill:#000000;fill-opacity:1"
         d="M 8.7185878,4.0337352 L -2.2072895,0.016013256 L 8.7185884,-4.0017078 C 6.9730900,-1.6296469 6.9831476,1.6157441 8.7185878,4.0337352 z "
         transform="scale(1.1) translate(1,0)" /></marker><marker
       inkscape:stockid="TriangleInL"
       orient="auto"
       refY="0"
       refX="0"
       id="marker12030-6"
       style="overflow:visible"
       inkscape:isstock="true"><path
         inkscape:connector-curvature="0"
         id="path12032-5"
         d="m 5.77,0 -8.65,5 0,-10 8.65,5 z"
         style="fill:#000000;fill-opacity:1;fill-rule:evenodd;stroke:#000000;stroke-width:1pt;stroke-opacity:1"
         transform="scale(-0.8,-0.8)" /></marker><marker
       inkscape:stockid="TriangleOutL"
       orient="auto"
       refY="0"
       refX="0"
       id="TriangleOutL-6"
       style="overflow:visible"
       inkscape:isstock="true"><path
         inkscape:connector-curvature="0"
         id="path10418-3"
         d="m 5.77,0 -8.65,5 0,-10 8.65,5 z"
         style="fill:#000000;fill-opacity:1;fill-rule:evenodd;stroke:#000000;stroke-width:1pt;stroke-opacity:1"
         transform="scale(0.8,0.8)" /></marker></defs><g
     transform="translate(-72.6,44.986414)"
     style="display:none"
     display="none"
     id="Layer_31"><rect
       style="display:inline;fill:#414042"
       y="0"
       x="0"
       id="rect9085"
       height="215"
       width="841.90002"
       display="inline" /></g><g
     transform="translate(-72.6,44.986414)"
     id="laptops"><g
       id="laptop_copy_4"><rect
         style="fill:#bcbec0"
         id="rect9089"
         height="65"
         width="100.9"
         y="76.400002"
         x="84.300003" /><polygon
         style="fill:#939598"
         id="polygon9091"
         points="72.6,155.9 198.1,155.9 198.1,150.6 185.2,141.4 84.3,141.4 72.6,150.6 " /><rect
         style="fill:#939598"
         id="rect9093"
         height="51.700001"
         width="85.300003"
         y="83.400002"
         x="92.099998" /></g><g
       id="laptop_copy_5"><rect
         style="fill:#bcbec0"
         id="rect9096"
         height="65"
         width="100.9"
         y="76.400002"
         x="681.59998" /><polygon
         style="fill:#939598"
         id="polygon9098"
         points="669.9,155.9 795.4,155.9 795.4,150.6 782.5,141.4 681.6,141.4 669.9,150.6 " /><rect
         style="fill:#939598"
         id="rect9100"
         height="51.700001"
         width="85.300003"
         y="83.400002"
         x="689.40002" /></g><g
       transform="translate(0.65674268,114.90227)"
       id="laptop_copy_4-1"><rect
         style="fill:#bcbec0"
         id="rect9089-7"
         height="65"
         width="100.9"
         y="76.400002"
         x="84.300003" /><polygon
         style="fill:#939598"
         id="polygon9091-7"
         points="72.6,155.9 198.1,155.9 198.1,150.6 185.2,141.4 84.3,141.4 72.6,150.6 " /><rect
         style="fill:#939598"
         id="rect9093-1"
         height="51.700001"
         width="85.300003"
         y="83.400002"
         x="92.099998" /></g><g
       id="g9674"
       transform="translate(586.05794,190.10356)"><g
         id="g9656"
         display="none"
         style="display:none"><rect
           id="rect9658"
           height="90"
           width="90"
           stroke-miterlimit="10"
           display="inline"
           y="5"
           x="5"
           style="display:inline;fill:#000000;stroke:#000000;stroke-width:0.5;stroke-miterlimit:10" /></g><g
         id="g9660"
         transform="matrix(0.59474702,0,0,0.59474702,-478.77785,-216.0545)"
         style="fill:#b3b3b3"><path
           id="path9662"
           d="M 74.119,5 29.668,5 C 26.56,5 24.04,7.522 24.04,10.631 l 0,78.741 c 0,3.109 2.52,5.628 5.628,5.628 l 44.451,0 c 3.108,0 5.631,-2.519 5.631,-5.628 l 0,-78.741 C 79.75,7.522 77.228,5 74.119,5 Z M 51.895,92.249 c -2.917,0 -5.276,-2.365 -5.276,-5.278 0,-2.917 2.359,-5.279 5.276,-5.279 2.917,0 5.276,2.362 5.276,5.279 0,2.913 -2.359,5.278 -5.276,5.278 z M 72.784,73.956 c 0,2.332 -1.893,4.221 -4.222,4.221 l -33.335,0 c -2.331,0 -4.222,-1.889 -4.222,-4.221 l 0,-59.057 c 0,-2.332 1.891,-4.221 4.222,-4.221 l 33.336,0 c 2.329,0 4.222,1.889 4.222,4.221 l 0,59.057 z"
           inkscape:connector-curvature="0"
           style="fill:#b3b3b3" /></g></g></g><g
     transform="translate(-72.6,44.986414)"
     style="display:none"
     display="none"
     id="IP"><g
       style="display:inline"
       display="inline"
       id="connections"><circle
         style="fill:#f1f2f2"
         id="circle9115"
         r="15.3"
         cy="118.6"
         cx="253.8" /><circle
         style="fill:#f1f2f2"
         id="circle9117"
         r="15.3"
         cy="118.6"
         cx="615.09998" /><rect
         style="fill:#f1f2f2"
         id="rect9119"
         height="6.5"
         width="362.20001"
         y="115.4"
         x="252.89999" /></g><g
       style="display:inline"
       display="inline"
       id="arrows_copy"><g
         id="g9122"><line
           style="fill:#a7a9ac"
           id="line9124"
           y2="98.300003"
           x2="458.60001"
           y1="98.300003"
           x1="405.29999" /><g
           id="g9126"><line
             style="fill:none;stroke:#4cbea2;stroke-width:5;stroke-miterlimit:10"
             id="line9128"
             y2="98.300003"
             x2="444.20001"
             y1="98.300003"
             x1="405.29999"
             stroke-miterlimit="10" /><g
             id="g9130"><polygon
               style="fill:#4cbea2"
               id="polygon9132"
               points="441.3,108.2 458.6,98.3 441.3,88.3 " /></g></g></g><g
         id="g9134"><line
           style="fill:#a7a9ac"
           id="line9136"
           y2="141.7"
           x2="405.29999"
           y1="141.7"
           x1="458.60001" /><g
           id="g9138"><line
             style="fill:none;stroke:#4cbea2;stroke-width:5;stroke-miterlimit:10"
             id="line9140"
             y2="141.7"
             x2="419.60001"
             y1="141.7"
             x1="458.60001"
             stroke-miterlimit="10" /><g
             id="g9142"><polygon
               style="fill:#4cbea2"
               id="polygon9144"
               points="422.6,131.7 405.3,141.6 422.6,151.6 " /></g></g></g></g></g><g
     transform="translate(-72.6,44.986414)"
     id="multiplicity"><path
       style="fill:#f1f2f2"
       id="path9147"
       d="m 615,103.1 c -7.4,0 -13.6,5.3 -15,12.3 -41.3,2.6 -58.7,15.9 -71.7,25.9 -11,8.5 -19,14.6 -37,11.2 -19.8,-3.7 -22.6,-21 -26,-41.1 -1.1,-6.8 -2.3,-13.9 -4.4,-20.6 5.3,3.4 11.9,6.1 18.9,6.1 1.3,0 2.7,-0.1 4,-0.3 9.8,-1.5 18.3,-8.5 25.4,-20.7 1.1,0.2 2.1,0.4 3.3,0.4 8.5,0 15.3,-6.9 15.3,-15.3 0,-8.4 -6.9,-15.3 -15.3,-15.3 -8.4,0 -15.3,6.9 -15.3,15.3 0,4.8 2.2,9.1 5.7,12 -5.9,10 -12.6,15.7 -20.1,16.8 -15.6,2.4 -30.3,-15.3 -30.4,-15.5 l 0,0 C 447.9,69 441.6,65 432.5,63.2 408.2,58.4 398.8,79 389.7,98.8 c -6.8,14.8 -13.4,29.1 -25.7,34.4 -0.4,0.2 -0.8,0.3 -1.1,0.5 -5.6,2.1 -12.3,2.5 -20.7,0.3 -10.1,-2.6 -16.2,-7.4 -19.8,-12.8 19.6,-2.9 32.4,-8.5 38,-16.8 4.6,-6.8 4.4,-15.1 -0.6,-24.6 -9,-17.2 -19.8,-17.5 -25.4,-16.1 -13.2,3.2 -24,20.8 -24.1,39.3 0,4.5 0.5,8.6 1.7,12.5 -14.7,1.4 -30.4,1.3 -42.9,0.7 -1.2,-7.3 -7.5,-12.9 -15.1,-12.9 -8.5,0 -15.3,6.9 -15.3,15.3 0,8.4 6.9,15.3 15.3,15.3 6.9,0 12.8,-4.6 14.7,-10.9 8.4,0.4 19.5,0.7 31,0.2 5.4,-0.2 10.4,-0.6 15.2,-1 4.9,9 13.7,15.5 25.7,18.6 11.7,3 20.8,1.9 28.1,-1.7 9.4,-3.4 26.6,-7.5 35.2,-0.1 5.9,5.1 6.7,14.8 5.3,24.8 -8,0.5 -14.3,7.2 -14.3,15.3 0,8.5 6.9,15.3 15.3,15.3 8.4,0 15.3,-6.9 15.3,-15.3 0,-6.4 -3.9,-11.8 -9.4,-14.2 2,-14.7 -0.6,-25.2 -7.7,-31.3 -7.3,-6.3 -17.9,-6.6 -27.2,-5.1 6.2,-7.7 10.8,-17.5 15,-26.8 8.7,-19 16.3,-35.3 35.1,-31.6 20.8,4.1 23.9,22.8 27.2,42.6 3.3,19.8 7,42.3 31.6,46.9 3.9,0.7 7.4,1.1 10.7,1.1 14.2,0 22.5,-6.4 31.9,-13.6 13,-9.9 28.8,-22 67.7,-24.5 1.7,6.6 7.7,11.4 14.8,11.4 8.5,0 15.3,-6.9 15.3,-15.3 0,-8.4 -7,-15.6 -15.5,-15.6 z m -296,11.4 c -1.5,-4.2 -1.9,-8.4 -1.8,-11.6 0.1,-14.9 8.9,-30.1 18.8,-32.5 0.9,-0.2 1.7,-0.3 2.5,-0.3 6.8,0 11.9,6.8 15.1,12.9 3.7,7.2 4.1,12.9 1,17.5 -5.3,7.7 -19.3,11.9 -35.6,14 z" /><path
       inkscape:connector-curvature="0"
       style="fill:#f1f2f2;fill-opacity:1"
       d="m 284.43313,74.605816 c 4.422,0.012 8.321,2.174 10.719,5.486 l 4.789,-4.75 c -3.645,-4.502 -9.233,-7.389 -15.508,-7.392 -6.285,0.003 -11.886,2.906 -15.531,7.426 l 4.79,4.752 c 2.391,-3.331 6.303,-5.51 10.741,-5.522 z"
       id="path4113-6-1" /><path
       inkscape:connector-curvature="0"
       style="fill:#f1f2f2;fill-opacity:1"
       d="m 284.43913,59.096816 c -8.751,0.003 -16.59,3.882 -21.874,9.991 l 4.365,4.33 c 0.465,-0.561 0.953,-1.102 1.471,-1.616 4.112,-4.076 9.771,-6.598 16.032,-6.606 6.263,0.005 11.927,2.527 16.031,6.598 0.512,0.507 0.99,1.038 1.45,1.588 l 4.358,-4.33 c -5.284,-6.09 -13.104,-9.955 -21.833,-9.955 z"
       id="path4115-6-5" /><path
       inkscape:connector-curvature="0"
       style="fill:#939598;fill-opacity:1"
       d="m 294.92213,104.60382 c 0,-1.65 -0.8,-2.983 -1.777,-2.983 l -6.291,0 0,-19.810004 c 0,-1.377 -1.121,-2.496 -2.514,-2.496 -1.386,0 -2.513,1.119 -2.513,2.496 l 0,19.810004 -67.852,0 c -0.983,0 -1.771,1.333 -1.771,2.983 l -5.296,22.466 93.298,0 -5.284,-22.466 z"
       id="path4117-4-9" /><path
       inkscape:connector-curvature="0"
       style="fill:#b8b9bb;fill-opacity:1"
       d="m 206.87913,125.56582 0,15.33 c 0,0.972 0.787,1.76 1.771,1.76 l 89.82,0 c 0.977,0 1.771,-0.788 1.771,-1.76 l 0,-15.33 -93.362,0 z m 8.171,11.276 c -1.633,0 -2.956,-1.315 -2.956,-2.937 0,-1.617 1.323,-2.933 2.956,-2.933 1.633,0 2.956,1.315 2.956,2.933 0,1.621 -1.323,2.937 -2.956,2.937 z m 10.931,0 c -1.633,0 -2.956,-1.315 -2.956,-2.937 0,-1.617 1.322,-2.933 2.956,-2.933 1.634,0 2.95,1.315 2.95,2.933 0.001,1.621 -1.316,2.937 -2.95,2.937 z m 10.926,0 c -1.633,0 -2.956,-1.315 -2.956,-2.937 0,-1.617 1.322,-2.933 2.956,-2.933 1.633,0 2.955,1.315 2.955,2.933 0,1.621 -1.322,2.937 -2.955,2.937 z m 54.651,0 c -1.633,0 -2.956,-1.315 -2.956,-2.937 0,-1.617 1.323,-2.933 2.956,-2.933 1.634,0 2.955,1.315 2.955,2.933 0,1.621 -1.321,2.937 -2.955,2.937 z"
       id="path4119-9-7" /></g><g
     transform="translate(-72.6,44.986414)"
     style="display:none"
     display="none"
     id="dns"><g
       style="display:inline"
       display="inline"
       id="connections_copy_2"><circle
         style="fill:#f1f2f2"
         id="circle9151"
         r="15.3"
         cy="118.4"
         cx="253.8" /><circle
         style="fill:#f1f2f2"
         id="circle9153"
         r="15.3"
         cy="118.4"
         cx="615" /><rect
         style="fill:#f1f2f2"
         id="rect9155"
         height="6.5"
         width="357.20001"
         y="115.2"
         x="257.79999" /></g><g
       style="display:inline"
       display="inline"
       id="arrows_copy_3"><g
         id="g9158"><line
           style="fill:#a7a9ac"
           id="line9160"
           y2="98"
           x2="381.20001"
           y1="98"
           x1="327.89999" /><g
           id="g9162"><line
             style="fill:none;stroke:#4cbea2;stroke-width:5;stroke-miterlimit:10"
             id="line9164"
             y2="98"
             x2="366.79999"
             y1="98"
             x1="327.89999"
             stroke-miterlimit="10" /><g
             id="g9166"><polygon
               style="fill:#4cbea2"
               id="polygon9168"
               points="363.9,108 381.2,98 363.9,88.1 " /></g></g></g><g
         id="g9170"><line
           style="fill:#a7a9ac"
           id="line9172"
           y2="98"
           x2="538.90002"
           y1="98"
           x1="485.60001" /><g
           id="g9174"><line
             style="fill:none;stroke:#4cbea2;stroke-width:5;stroke-miterlimit:10"
             id="line9176"
             y2="98"
             x2="524.5"
             y1="98"
             x1="485.60001"
             stroke-miterlimit="10" /><g
             id="g9178"><polygon
               style="fill:#4cbea2"
               id="polygon9180"
               points="521.6,108 538.9,98 521.6,88.1 " /></g></g></g><g
         id="g9182"><line
           style="fill:#a7a9ac"
           id="line9184"
           y2="141.39999"
           x2="327.89999"
           y1="141.39999"
           x1="381.20001" /><g
           id="g9186"><line
             style="fill:none;stroke:#4cbea2;stroke-width:5;stroke-miterlimit:10"
             id="line9188"
             y2="141.39999"
             x2="342.20001"
             y1="141.39999"
             x1="381.20001"
             stroke-miterlimit="10" /><g
             id="g9190"><polygon
               style="fill:#4cbea2"
               id="polygon9192"
               points="345.2,131.4 327.9,141.4 345.2,151.4 " /></g></g></g><g
         id="g9194"><line
           style="fill:#a7a9ac"
           id="line9196"
           y2="141.39999"
           x2="485.60001"
           y1="141.39999"
           x1="538.90002" /><g
           id="g9198"><line
             style="fill:none;stroke:#4cbea2;stroke-width:5;stroke-miterlimit:10"
             id="line9200"
             y2="141.39999"
             x2="499.89999"
             y1="141.39999"
             x1="538.90002"
             stroke-miterlimit="10" /><g
             id="g9202"><polygon
               style="fill:#4cbea2"
               id="polygon9204"
               points="502.8,131.4 485.6,141.4 502.8,151.4 " /></g></g></g><rect
         style="fill:#4cbea2"
         id="rect9206"
         height="45.5"
         width="42.599998"
         y="95.699997"
         x="410.60001" /></g></g><g
     transform="translate(-72.6,44.986414)"
     style="display:none"
     display="none"
     id="read"><g
       style="display:inline"
       display="inline"
       id="connections_copy_3"><circle
         style="fill:#f1f2f2"
         id="circle9210"
         r="15.3"
         cy="118.4"
         cx="253.8" /><circle
         style="fill:#f1f2f2"
         id="circle9212"
         r="15.3"
         cy="118.4"
         cx="615" /><circle
         style="fill:#f1f2f2"
         id="circle9214"
         r="15.3"
         cy="118.4"
         cx="431.89999" /><rect
         style="fill:#f1f2f2"
         id="rect9216"
         height="6.5"
         width="362.20001"
         y="115.2"
         x="252.8" /><text
         style="font-size:19px;font-family:Roboto-Medium;fill:#4cbea2"
         id="text9218"
         font-size="19"
         transform="translate(388.3569,57.3)">I love you</text>
</g><g
       style="display:inline"
       display="inline"
       id="arrows_copy_4"><g
         id="g9221"><line
           style="fill:#a7a9ac"
           id="line9223"
           y2="88.900002"
           x2="458.60001"
           y1="88.900002"
           x1="405.29999" /><g
           id="g9225"><line
             style="fill:none;stroke:#4cbea2;stroke-width:5;stroke-miterlimit:10"
             id="line9227"
             y2="88.900002"
             x2="444.20001"
             y1="88.900002"
             x1="405.29999"
             stroke-miterlimit="10" /><g
             id="g9229"><polygon
               style="fill:#4cbea2"
               id="polygon9231"
               points="441.3,98.9 458.6,88.9 441.3,79 " /></g></g></g></g></g><g
     transform="translate(-72.6,44.986414)"
     style="display:none"
     display="none"
     id="encrypt"><g
       style="display:inline"
       display="inline"
       id="connections_copy_4"><circle
         style="fill:#f1f2f2"
         id="circle9235"
         r="15.3"
         cy="118.4"
         cx="253.8" /><circle
         style="fill:#f1f2f2"
         id="circle9237"
         r="15.3"
         cy="118.4"
         cx="615" /><circle
         style="fill:#f1f2f2"
         id="circle9239"
         r="15.3"
         cy="118.4"
         cx="431.89999" /><rect
         style="fill:#f1f2f2"
         id="rect9241"
         height="6.5"
         width="362.20001"
         y="115.2"
         x="252.8" /><text
         style="font-size:19px;font-family:Roboto-Medium;fill:#4cbea2"
         id="text9243"
         font-size="19"
         transform="translate(368.1044,57.3)">Aoias3xa2pp9</text>
<text
         style="font-size:19px;font-family:Roboto-Medium;fill:#4cbea2"
         id="text9245"
         font-size="19"
         transform="translate(74.4094,57.3)">Aoias3xa2pp9</text>
<text
         style="font-size:19px;font-family:Roboto-Medium;fill:#3987c8"
         id="text9247"
         font-size="19"
         transform="translate(94.6617,33.9667)">I love you</text>
<text
         style="font-size:19px;font-family:Roboto-Medium;fill:#4cbea2"
         id="text9249"
         font-size="19"
         transform="translate(671.7424,57.3)">Aoias3xa2pp9</text>
<text
         style="font-size:19px;font-family:Roboto-Medium;fill:#3987c8"
         id="text9251"
         font-size="19"
         transform="translate(691.9946,33.9667)">I love you</text>
</g><g
       style="display:inline"
       display="inline"
       id="arrows_copy_5"><g
         id="g9254"><line
           style="fill:#a7a9ac"
           id="line9256"
           y2="88.900002"
           x2="458.60001"
           y1="88.900002"
           x1="405.29999" /><g
           id="g9258"><line
             style="fill:none;stroke:#4cbea2;stroke-width:5;stroke-miterlimit:10"
             id="line9260"
             y2="88.900002"
             x2="444.20001"
             y1="88.900002"
             x1="405.29999"
             stroke-miterlimit="10" /><g
             id="g9262"><polygon
               style="fill:#4cbea2"
               id="polygon9264"
               points="441.3,98.9 458.6,88.9 441.3,79 " /></g></g></g></g></g><path
     style="fill:#939598;fill-opacity:1"
     d="m 381.21028,212.52793 c 0,-1.65 -0.8,-2.983 -1.777,-2.983 l -6.291,0 0,-19.81 c 0,-1.377 -1.121,-2.496 -2.514,-2.496 -1.386,0 -2.513,1.119 -2.513,2.496 l 0,19.81 -67.852,0 c -0.983,0 -1.771,1.333 -1.771,2.983 l -5.296,22.466 93.298,0 -5.284,-22.466 z"
     id="path4117-4"
     inkscape:connector-curvature="0" /><path
     style="fill:#b8b9bb;fill-opacity:1"
     d="m 293.16728,233.48993 0,15.33 c 0,0.972 0.787,1.76 1.771,1.76 l 89.82,0 c 0.977,0 1.771,-0.788 1.771,-1.76 l 0,-15.33 -93.362,0 z m 8.171,11.276 c -1.633,0 -2.956,-1.315 -2.956,-2.937 0,-1.617 1.323,-2.933 2.956,-2.933 1.633,0 2.956,1.315 2.956,2.933 0,1.621 -1.323,2.937 -2.956,2.937 z m 10.931,0 c -1.633,0 -2.956,-1.315 -2.956,-2.937 0,-1.617 1.322,-2.933 2.956,-2.933 1.634,0 2.95,1.315 2.95,2.933 10e-4,1.621 -1.316,2.937 -2.95,2.937 z m 10.926,0 c -1.633,0 -2.956,-1.315 -2.956,-2.937 0,-1.617 1.322,-2.933 2.956,-2.933 1.633,0 2.955,1.315 2.955,2.933 0,1.621 -1.322,2.937 -2.955,2.937 z m 54.651,0 c -1.633,0 -2.956,-1.315 -2.956,-2.937 0,-1.617 1.323,-2.933 2.956,-2.933 1.634,0 2.955,1.315 2.955,2.933 0,1.621 -1.321,2.937 -2.955,2.937 z"
     id="path4119-9"
     inkscape:connector-curvature="0" /><path
     style="fill:#939598;fill-opacity:1"
     d="m 479.21915,82.974621 c 0,-1.65 -0.8,-2.983 -1.777,-2.983 l -6.291,0 0,-19.81 c 0,-1.377 -1.121,-2.496 -2.514,-2.496 -1.386,0 -2.513,1.119 -2.513,2.496 l 0,19.81 -67.852,0 c -0.983,0 -1.771,1.333 -1.771,2.983 l -5.296,22.465999 93.298,0 -5.284,-22.465999 z"
     id="path4117-4-0"
     inkscape:connector-curvature="0" /><path
     style="fill:#b8b9bb;fill-opacity:1"
     d="m 391.17615,103.93662 0,15.33 c 0,0.972 0.787,1.76 1.771,1.76 l 89.82,0 c 0.977,0 1.771,-0.788 1.771,-1.76 l 0,-15.33 -93.362,0 z m 8.171,11.276 c -1.633,0 -2.956,-1.315 -2.956,-2.937 0,-1.617 1.323,-2.933 2.956,-2.933 1.633,0 2.956,1.315 2.956,2.933 0,1.621 -1.323,2.937 -2.956,2.937 z m 10.931,0 c -1.633,0 -2.956,-1.315 -2.956,-2.937 0,-1.617 1.322,-2.933 2.956,-2.933 1.634,0 2.95,1.315 2.95,2.933 10e-4,1.621 -1.316,2.937 -2.95,2.937 z m 10.926,0 c -1.633,0 -2.956,-1.315 -2.956,-2.937 0,-1.617 1.322,-2.933 2.956,-2.933 1.633,0 2.955,1.315 2.955,2.933 0,1.621 -1.322,2.937 -2.955,2.937 z m 54.651,0 c -1.633,0 -2.956,-1.315 -2.956,-2.937 0,-1.617 1.323,-2.933 2.956,-2.933 1.634,0 2.955,1.315 2.955,2.933 0,1.621 -1.321,2.937 -2.955,2.937 z"
     id="path4119-9-9"
     inkscape:connector-curvature="0" /><path
     style="fill:#f1f2f2;fill-opacity:1"
     d="m 574.50047,116.7101 c 4.422,0.012 8.321,2.174 10.719,5.486 l 4.789,-4.75 c -3.645,-4.502 -9.233,-7.389 -15.508,-7.392 -6.285,0.003 -11.886,2.906 -15.531,7.426 l 4.79,4.752 c 2.391,-3.331 6.303,-5.51 10.741,-5.522 z"
     id="path4113-6-4-7"
     inkscape:connector-curvature="0" /><path
     style="fill:#f1f2f2;fill-opacity:1"
     d="m 574.50647,101.2011 c -8.751,0.003 -16.59,3.882 -21.874,9.991 l 4.365,4.33 c 0.465,-0.561 0.953,-1.102 1.471,-1.616 4.112,-4.076 9.771,-6.598 16.032,-6.606 6.263,0.005 11.927,2.527 16.031,6.598 0.512,0.507 0.99,1.038 1.45,1.588 l 4.358,-4.33 c -5.284,-6.09 -13.104,-9.955 -21.833,-9.955 z"
     id="path4115-6-9-6"
     inkscape:connector-curvature="0" /><path
     style="fill:#939598;fill-opacity:1"
     d="m 584.98947,146.7081 c 0,-1.65 -0.8,-2.983 -1.777,-2.983 l -6.291,0 0,-19.81 c 0,-1.377 -1.121,-2.496 -2.514,-2.496 -1.386,0 -2.513,1.119 -2.513,2.496 l 0,19.81 -67.852,0 c -0.983,0 -1.771,1.333 -1.771,2.983 l -5.296,22.466 93.298,0 -5.284,-22.466 z"
     id="path4117-4-0-7"
     inkscape:connector-curvature="0" /><path
     style="fill:#b8b9bb;fill-opacity:1"
     d="m 496.94647,167.6701 0,15.33 c 0,0.972 0.787,1.76 1.771,1.76 l 89.82,0 c 0.977,0 1.771,-0.788 1.771,-1.76 l 0,-15.33 -93.362,0 z m 8.171,11.276 c -1.633,0 -2.956,-1.315 -2.956,-2.937 0,-1.617 1.323,-2.933 2.956,-2.933 1.633,0 2.956,1.315 2.956,2.933 0,1.621 -1.323,2.937 -2.956,2.937 z m 10.931,0 c -1.633,0 -2.956,-1.315 -2.956,-2.937 0,-1.617 1.322,-2.933 2.956,-2.933 1.634,0 2.95,1.315 2.95,2.933 10e-4,1.621 -1.316,2.937 -2.95,2.937 z m 10.926,0 c -1.633,0 -2.956,-1.315 -2.956,-2.937 0,-1.617 1.322,-2.933 2.956,-2.933 1.633,0 2.955,1.315 2.955,2.933 0,1.621 -1.322,2.937 -2.955,2.937 z m 54.651,0 c -1.633,0 -2.956,-1.315 -2.956,-2.937 0,-1.617 1.323,-2.933 2.956,-2.933 1.634,0 2.955,1.315 2.955,2.933 0,1.621 -1.321,2.937 -2.955,2.937 z"
     id="path4119-9-9-3"
     inkscape:connector-curvature="0" /></svg>