<?xml version="1.0" encoding="UTF-8" standalone="no"?>
<svg
   xmlns:dc="http://purl.org/dc/elements/1.1/"
   xmlns:cc="http://creativecommons.org/ns#"
   xmlns:rdf="http://www.w3.org/1999/02/22-rdf-syntax-ns#"
   xmlns:svg="http://www.w3.org/2000/svg"
   xmlns="http://www.w3.org/2000/svg"
   xmlns:sodipodi="http://sodipodi.sourceforge.net/DTD/sodipodi-0.dtd"
   xmlns:inkscape="http://www.inkscape.org/namespaces/inkscape"
   id="svg14229"
   xml:space="preserve"
   enable-background="new 0 0 841.9 215"
   viewBox="0 0 841.9 215"
   y="0px"
   x="0px"
   version="1.1"
   inkscape:version="0.91 r13725"
   sodipodi:docname="multiplicity_routers.svg"><sodipodi:namedview
     pagecolor="#ffffff"
     bordercolor="#666666"
     borderopacity="1"
     objecttolerance="10"
     gridtolerance="10"
     guidetolerance="10"
     inkscape:pageopacity="0"
     inkscape:pageshadow="2"
     inkscape:window-width="2560"
     inkscape:window-height="1416"
     id="namedview21997"
     showgrid="false"
     inkscape:zoom="3.5745889"
     inkscape:cx="369.77481"
     inkscape:cy="105.10049"
     inkscape:window-x="0"
     inkscape:window-y="24"
     inkscape:window-maximized="1"
     inkscape:current-layer="svg14229" /><metadata
     id="metadata14417"><rdf:RDF><cc:Work
         rdf:about=""><dc:format>image/svg+xml</dc:format><dc:type
           rdf:resource="http://purl.org/dc/dcmitype/StillImage" /><dc:title /></cc:Work></rdf:RDF></metadata><defs
     id="defs14415" /><g
     display="none"
     id="Layer_31"><rect
       id="rect14232"
       height="215"
       width="841.9"
       fill="#414042"
       display="inline" /></g><g
     id="laptops"><g
       id="laptop_copy_4"><rect
         id="rect14236"
         height="65"
         width="100.9"
         fill="#BCBEC0"
         y="76.4"
         x="84.3" /><polygon
         id="polygon14238"
         points="185.2,141.4 84.3,141.4 72.6,150.6 72.6,155.9 198.1,155.9 198.1,150.6   "
         fill="#939598" /><rect
         id="rect14240"
         height="51.7"
         width="85.3"
         fill="#939598"
         y="83.4"
         x="92.1" /></g><g
       id="laptop_copy_5"><rect
         id="rect14243"
         height="65"
         width="100.9"
         fill="#BCBEC0"
         y="76.4"
         x="681.6" /><polygon
         id="polygon14245"
         points="782.5,141.4 681.6,141.4 669.9,150.6 669.9,155.9 795.4,155.9 795.4,150.6   "
         fill="#939598" /><rect
         id="rect14247"
         height="51.7"
         width="85.3"
         fill="#939598"
         y="83.4"
         x="689.4" /></g></g><g
     id="ips"><text
       id="text14250"
       font-size="17"
       font-family="'Roboto-Medium'"
       fill="#D1D3D4"
       transform="matrix(1 0 0 1 203.2478 74.3)">85.69.96.147</text>
<text
       id="text14252"
       transform="matrix(1 0 0 1 559.2963 74.3)"><tspan
         id="tspan14254"
         font-size="17"
         font-family="'Roboto-Medium'"
         fill="#D1D3D4"
         y="0"
         x="0">122</tspan><tspan
         id="tspan14256"
         font-size="17"
         font-family="'Roboto-Medium'"
         fill="#D1D3D4"
         y="0"
         x="29">.</tspan><tspan
         id="tspan14258"
         font-size="17"
         font-family="'Roboto-Medium'"
         fill="#D1D3D4"
         y="0"
         x="34.4">44.95.115</tspan></text>
<text
       id="text14250-8"
       font-size="17"
       style="font-size:17px;font-family:Roboto-Medium;fill:#d1d3d4"
       x="411.07254"
       y="34.313595">134.98.1.56</text>
<text
       id="text14250-85"
       font-size="17"
       style="font-size:17px;font-family:Roboto-Medium;fill:#d1d3d4"
       x="354.5625"
       y="211.11716">46.10.132.18</text>
</g><g
     display="none"
     id="IP"><g
       display="inline"
       id="connections"><circle
         id="circle14262"
         r="15.3"
         cy="118.6"
         cx="253.8"
         fill="#F1F2F2" /><circle
         id="circle14264"
         r="15.3"
         cy="118.6"
         cx="615.1"
         fill="#F1F2F2" /><rect
         id="rect14266"
         height="6.5"
         width="362.2"
         fill="#F1F2F2"
         y="115.4"
         x="252.9" /></g><g
       display="inline"
       id="arrows_copy"><g
         id="g14269"><line
           id="line14271"
           y2="98.3"
           x2="458.6"
           y1="98.3"
           x1="405.3"
           fill="#A7A9AC" /><g
           id="g14273"><line
             id="line14275"
             y2="98.3"
             x2="444.2"
             y1="98.3"
             x1="405.3"
             stroke-miterlimit="10"
             stroke-width="5"
             stroke="#4CBEA2"
             fill="none" /><g
             id="g14277"><polygon
               id="polygon14279"
               points="441.3,108.2 458.6,98.3 441.3,88.3      "
               fill="#4CBEA2" /></g></g></g><g
         id="g14281"><line
           id="line14283"
           y2="141.7"
           x2="405.3"
           y1="141.7"
           x1="458.6"
           fill="#A7A9AC" /><g
           id="g14285"><line
             id="line14287"
             y2="141.7"
             x2="419.6"
             y1="141.7"
             x1="458.6"
             stroke-miterlimit="10"
             stroke-width="5"
             stroke="#4CBEA2"
             fill="none" /><g
             id="g14289"><polygon
               id="polygon14291"
               points="422.6,131.7 405.3,141.6 422.6,151.6      "
               fill="#4CBEA2" /></g></g></g></g></g><g
     id="multiplicity"><path
       id="path14294"
       d="M615,103.1c-7.4,0-13.6,5.3-15,12.3c-41.3,2.6-58.7,15.9-71.7,25.9c-11,8.5-19,14.6-37,11.2   c-19.8-3.7-22.6-21-26-41.1c-1.1-6.8-2.3-13.9-4.4-20.6c5.3,3.4,11.9,6.1,18.9,6.1c1.3,0,2.7-0.1,4-0.3c9.8-1.5,18.3-8.5,25.4-20.7   c1.1,0.2,2.1,0.4,3.3,0.4c8.5,0,15.3-6.9,15.3-15.3s-6.9-15.3-15.3-15.3s-15.3,6.9-15.3,15.3c0,4.8,2.2,9.1,5.7,12   c-5.9,10-12.6,15.7-20.1,16.8c-15.6,2.4-30.3-15.3-30.4-15.5l0,0c-4.5-5.3-10.8-9.3-19.9-11.1c-24.3-4.8-33.7,15.8-42.8,35.6   c-6.8,14.8-13.4,29.1-25.7,34.4c-0.4,0.2-0.8,0.3-1.1,0.5c-5.6,2.1-12.3,2.5-20.7,0.3c-10.1-2.6-16.2-7.4-19.8-12.8   c19.6-2.9,32.4-8.5,38-16.8c4.6-6.8,4.4-15.1-0.6-24.6c-9-17.2-19.8-17.5-25.4-16.1c-13.2,3.2-24,20.8-24.1,39.3   c0,4.5,0.5,8.6,1.7,12.5c-14.7,1.4-30.4,1.3-42.9,0.7c-1.2-7.3-7.5-12.9-15.1-12.9c-8.5,0-15.3,6.9-15.3,15.3s6.9,15.3,15.3,15.3   c6.9,0,12.8-4.6,14.7-10.9c8.4,0.4,19.5,0.7,31,0.2c5.4-0.2,10.4-0.6,15.2-1c4.9,9,13.7,15.5,25.7,18.6c11.7,3,20.8,1.9,28.1-1.7   c9.4-3.4,26.6-7.5,35.2-0.1c5.9,5.1,6.7,14.8,5.3,24.8c-8,0.5-14.3,7.2-14.3,15.3c0,8.5,6.9,15.3,15.3,15.3s15.3-6.9,15.3-15.3   c0-6.4-3.9-11.8-9.4-14.2c2-14.7-0.6-25.2-7.7-31.3c-7.3-6.3-17.9-6.6-27.2-5.1c6.2-7.7,10.8-17.5,15-26.8   c8.7-19,16.3-35.3,35.1-31.6c20.8,4.1,23.9,22.8,27.2,42.6c3.3,19.8,7,42.3,31.6,46.9c3.9,0.7,7.4,1.1,10.7,1.1   c14.2,0,22.5-6.4,31.9-13.6c13-9.9,28.8-22,67.7-24.5c1.7,6.6,7.7,11.4,14.8,11.4c8.5,0,15.3-6.9,15.3-15.3S623.5,103.1,615,103.1z    M319,114.5c-1.5-4.2-1.9-8.4-1.8-11.6c0.1-14.9,8.9-30.1,18.8-32.5c0.9-0.2,1.7-0.3,2.5-0.3c6.8,0,11.9,6.8,15.1,12.9   c3.7,7.2,4.1,12.9,1,17.5C349.3,108.2,335.3,112.4,319,114.5z"
       fill="#F1F2F2" /></g><g
     display="none"
     id="dns"><g
       display="inline"
       id="connections_copy_2"><circle
         id="circle14298"
         r="15.3"
         cy="118.4"
         cx="253.8"
         fill="#F1F2F2" /><circle
         id="circle14300"
         r="15.3"
         cy="118.4"
         cx="615"
         fill="#F1F2F2" /><rect
         id="rect14302"
         height="6.5"
         width="357.2"
         fill="#F1F2F2"
         y="115.2"
         x="257.8" /></g><g
       display="inline"
       id="arrows_copy_3"><g
         id="g14305"><line
           id="line14307"
           y2="98"
           x2="381.2"
           y1="98"
           x1="327.9"
           fill="#A7A9AC" /><g
           id="g14309"><line
             id="line14311"
             y2="98"
             x2="366.8"
             y1="98"
             x1="327.9"
             stroke-miterlimit="10"
             stroke-width="5"
             stroke="#4CBEA2"
             fill="none" /><g
             id="g14313"><polygon
               id="polygon14315"
               points="363.9,108 381.2,98 363.9,88.1      "
               fill="#4CBEA2" /></g></g></g><g
         id="g14317"><line
           id="line14319"
           y2="98"
           x2="538.9"
           y1="98"
           x1="485.6"
           fill="#A7A9AC" /><g
           id="g14321"><line
             id="line14323"
             y2="98"
             x2="524.5"
             y1="98"
             x1="485.6"
             stroke-miterlimit="10"
             stroke-width="5"
             stroke="#4CBEA2"
             fill="none" /><g
             id="g14325"><polygon
               id="polygon14327"
               points="521.6,108 538.9,98 521.6,88.1      "
               fill="#4CBEA2" /></g></g></g><g
         id="g14329"><line
           id="line14331"
           y2="141.4"
           x2="327.9"
           y1="141.4"
           x1="381.2"
           fill="#A7A9AC" /><g
           id="g14333"><line
             id="line14335"
             y2="141.4"
             x2="342.2"
             y1="141.4"
             x1="381.2"
             stroke-miterlimit="10"
             stroke-width="5"
             stroke="#4CBEA2"
             fill="none" /><g
             id="g14337"><polygon
               id="polygon14339"
               points="345.2,131.4 327.9,141.4 345.2,151.4      "
               fill="#4CBEA2" /></g></g></g><g
         id="g14341"><line
           id="line14343"
           y2="141.4"
           x2="485.6"
           y1="141.4"
           x1="538.9"
           fill="#A7A9AC" /><g
           id="g14345"><line
             id="line14347"
             y2="141.4"
             x2="499.9"
             y1="141.4"
             x1="538.9"
             stroke-miterlimit="10"
             stroke-width="5"
             stroke="#4CBEA2"
             fill="none" /><g
             id="g14349"><polygon
               id="polygon14351"
               points="502.8,131.4 485.6,141.4 502.8,151.4      "
               fill="#4CBEA2" /></g></g></g><rect
         id="rect14353"
         height="45.5"
         width="42.6"
         fill="#4CBEA2"
         y="95.7"
         x="410.6" /></g></g><g
     display="none"
     id="read"><g
       display="inline"
       id="connections_copy_3"><circle
         id="circle14357"
         r="15.3"
         cy="118.4"
         cx="253.8"
         fill="#F1F2F2" /><circle
         id="circle14359"
         r="15.3"
         cy="118.4"
         cx="615"
         fill="#F1F2F2" /><circle
         id="circle14361"
         r="15.3"
         cy="118.4"
         cx="431.9"
         fill="#F1F2F2" /><rect
         id="rect14363"
         height="6.5"
         width="362.2"
         fill="#F1F2F2"
         y="115.2"
         x="252.8" /><text
         id="text14365"
         font-size="19"
         font-family="'Roboto-Medium'"
         fill="#4CBEA2"
         transform="matrix(1 0 0 1 388.3569 57.3)">I love you</text>
</g><g
       display="inline"
       id="arrows_copy_4"><g
         id="g14368"><line
           id="line14370"
           y2="88.9"
           x2="458.6"
           y1="88.9"
           x1="405.3"
           fill="#A7A9AC" /><g
           id="g14372"><line
             id="line14374"
             y2="88.9"
             x2="444.2"
             y1="88.9"
             x1="405.3"
             stroke-miterlimit="10"
             stroke-width="5"
             stroke="#4CBEA2"
             fill="none" /><g
             id="g14376"><polygon
               id="polygon14378"
               points="441.3,98.9 458.6,88.9 441.3,79      "
               fill="#4CBEA2" /></g></g></g></g></g><g
     display="none"
     id="encrypt"><g
       display="inline"
       id="connections_copy_4"><circle
         id="circle14382"
         r="15.3"
         cy="118.4"
         cx="253.8"
         fill="#F1F2F2" /><circle
         id="circle14384"
         r="15.3"
         cy="118.4"
         cx="615"
         fill="#F1F2F2" /><circle
         id="circle14386"
         r="15.3"
         cy="118.4"
         cx="431.9"
         fill="#F1F2F2" /><rect
         id="rect14388"
         height="6.5"
         width="362.2"
         fill="#F1F2F2"
         y="115.2"
         x="252.8" /><text
         id="text14390"
         font-size="19"
         font-family="'Roboto-Medium'"
         fill="#4CBEA2"
         transform="matrix(1 0 0 1 368.1044 57.3)">Aoias3xa2pp9</text>
<text
         id="text14392"
         font-size="19"
         font-family="'Roboto-Medium'"
         fill="#4CBEA2"
         transform="matrix(1 0 0 1 74.4094 57.3)">Aoias3xa2pp9</text>
<text
         id="text14394"
         font-size="19"
         font-family="'Roboto-Medium'"
         fill="#3987C8"
         transform="matrix(1 0 0 1 94.6617 33.9667)">I love you</text>
<text
         id="text14396"
         font-size="19"
         font-family="'Roboto-Medium'"
         fill="#4CBEA2"
         transform="matrix(1 0 0 1 671.7424 57.3)">Aoias3xa2pp9</text>
<text
         id="text14398"
         font-size="19"
         font-family="'Roboto-Medium'"
         fill="#3987C8"
         transform="matrix(1 0 0 1 691.9946 33.9667)">I love you</text>
</g><g
       display="inline"
       id="arrows_copy_5"><g
         id="g14401"><line
           id="line14403"
           y2="88.9"
           x2="458.6"
           y1="88.9"
           x1="405.3"
           fill="#A7A9AC" /><g
           id="g14405"><line
             id="line14407"
             y2="88.9"
             x2="444.2"
             y1="88.9"
             x1="405.3"
             stroke-miterlimit="10"
             stroke-width="5"
             stroke="#4CBEA2"
             fill="none" /><g
             id="g14409"><polygon
               id="polygon14411"
               points="441.3,98.9 458.6,88.9 441.3,79      "
               fill="#4CBEA2" /></g></g></g></g></g><path
     id="path4117-4-0"
     d="m 540.94013,46.72031 c 0,-1.296455 -0.62859,-2.343833 -1.39624,-2.343833 l -4.94303,0 0,-15.565319 c 0,-1.081951 -0.88081,-1.961183 -1.97533,-1.961183 -1.08902,0 -1.97454,0.879232 -1.97454,1.961183 l 0,15.565319 -53.31338,0 c -0.77237,0 -1.39153,1.047378 -1.39153,2.343833 l -4.16122,17.652218 73.30707,0 -4.1518,-17.652218 z"
     style="fill:#939598;fill-opacity:1" /><path
     id="path4119-9-9"
     d="m 471.76207,63.190789 0,12.045247 c 0,0.763729 0.61837,1.382885 1.39153,1.382885 l 70.5743,0 c 0.76766,0 1.39153,-0.619156 1.39153,-1.382885 l 0,-12.045247 -73.35736,0 z m 6.4202,8.859896 c -1.28309,0 -2.32262,-1.033236 -2.32262,-2.30769 0,-1.270526 1.03953,-2.304548 2.32262,-2.304548 1.2831,0 2.32262,1.033236 2.32262,2.304548 0,1.273669 -1.03952,2.30769 -2.32262,2.30769 z m 8.58882,0 c -1.2831,0 -2.32262,-1.033236 -2.32262,-2.30769 0,-1.270526 1.03874,-2.304548 2.32262,-2.304548 1.28388,0 2.31791,1.033236 2.31791,2.304548 7.8e-4,1.273669 -1.03403,2.30769 -2.31791,2.30769 z m 8.58489,0 c -1.2831,0 -2.32262,-1.033236 -2.32262,-2.30769 0,-1.270526 1.03874,-2.304548 2.32262,-2.304548 1.2831,0 2.32183,1.033236 2.32183,2.304548 0,1.273669 -1.03873,2.30769 -2.32183,2.30769 z m 42.94095,0 c -1.2831,0 -2.32262,-1.033236 -2.32262,-2.30769 0,-1.270526 1.03952,-2.304548 2.32262,-2.304548 1.28388,0 2.32183,1.033236 2.32183,2.304548 0,1.273669 -1.03795,2.30769 -2.32183,2.30769 z"
     style="fill:#b8b9bb;fill-opacity:1" /><path
     id="path4117-4-0-9"
     d="m 444.16363,163.65683 c 0,-1.29645 -0.62859,-2.34383 -1.39624,-2.34383 l -4.94303,0 0,-15.56532 c 0,-1.08195 -0.88081,-1.96118 -1.97533,-1.96118 -1.08902,0 -1.97454,0.87923 -1.97454,1.96118 l 0,15.56532 -53.31338,0 c -0.77237,0 -1.39153,1.04738 -1.39153,2.34383 l -4.16122,17.65222 73.30707,0 -4.1518,-17.65222 z"
     style="fill:#939598;fill-opacity:1" /><path
     id="path4119-9-9-0"
     d="m 374.98557,180.12732 0,12.04524 c 0,0.76373 0.61837,1.38289 1.39153,1.38289 l 70.5743,0 c 0.76766,0 1.39153,-0.61916 1.39153,-1.38289 l 0,-12.04524 -73.35736,0 z m 6.4202,8.85989 c -1.28309,0 -2.32262,-1.03323 -2.32262,-2.30769 0,-1.27052 1.03953,-2.30455 2.32262,-2.30455 1.2831,0 2.32262,1.03324 2.32262,2.30455 0,1.27367 -1.03952,2.30769 -2.32262,2.30769 z m 8.58882,0 c -1.2831,0 -2.32262,-1.03323 -2.32262,-2.30769 0,-1.27052 1.03874,-2.30455 2.32262,-2.30455 1.28388,0 2.31791,1.03324 2.31791,2.30455 7.8e-4,1.27367 -1.03403,2.30769 -2.31791,2.30769 z m 8.58489,0 c -1.2831,0 -2.32262,-1.03323 -2.32262,-2.30769 0,-1.27052 1.03874,-2.30455 2.32262,-2.30455 1.2831,0 2.32183,1.03324 2.32183,2.30455 0,1.27367 -1.03873,2.30769 -2.32183,2.30769 z m 42.94095,0 c -1.2831,0 -2.32262,-1.03323 -2.32262,-2.30769 0,-1.27052 1.03952,-2.30455 2.32262,-2.30455 1.28388,0 2.32183,1.03324 2.32183,2.30455 0,1.27367 -1.03795,2.30769 -2.32183,2.30769 z"
     style="fill:#b8b9bb;fill-opacity:1" /></svg>