<?xml version="1.0" encoding="UTF-8" standalone="no"?>
<!-- Generator: Adobe Illustrator 18.0.0, SVG Export Plug-In . SVG Version: 6.00 Build 0)  -->

<svg
   xmlns:dc="http://purl.org/dc/elements/1.1/"
   xmlns:cc="http://creativecommons.org/ns#"
   xmlns:rdf="http://www.w3.org/1999/02/22-rdf-syntax-ns#"
   xmlns:svg="http://www.w3.org/2000/svg"
   xmlns="http://www.w3.org/2000/svg"
   xmlns:sodipodi="http://sodipodi.sourceforge.net/DTD/sodipodi-0.dtd"
   xmlns:inkscape="http://www.inkscape.org/namespaces/inkscape"
   version="1.1"
   x="0px"
   y="0px"
   viewBox="0 0 841.9 215"
   enable-background="new 0 0 841.9 215"
   xml:space="preserve"
   id="svg21359"
   inkscape:version="0.91 r13725"
   sodipodi:docname="router.svg"><metadata
     id="metadata21786"><rdf:RDF><cc:Work
         rdf:about=""><dc:format>image/svg+xml</dc:format><dc:type
           rdf:resource="http://purl.org/dc/dcmitype/StillImage" /></cc:Work></rdf:RDF></metadata><defs
     id="defs21784" /><sodipodi:namedview
     pagecolor="#ffffff"
     bordercolor="#666666"
     borderopacity="1"
     objecttolerance="10"
     gridtolerance="10"
     guidetolerance="10"
     inkscape:pageopacity="0"
     inkscape:pageshadow="2"
     inkscape:window-width="1451"
     inkscape:window-height="1023"
     id="namedview21782"
     showgrid="false"
     inkscape:zoom="1.263808"
     inkscape:cx="305.14268"
     inkscape:cy="175.42048"
     inkscape:window-x="0"
     inkscape:window-y="24"
     inkscape:window-maximized="0"
     inkscape:current-layer="router" /><g
     id="Layer_31"
     display="none"><rect
       display="inline"
       fill="#414042"
       width="841.9"
       height="215"
       id="rect21362" /></g><g
     id="laptops"><g
       id="laptop_copy_4"><rect
         x="84.3"
         y="76.4"
         fill="#BCBEC0"
         width="100.9"
         height="65"
         id="rect21366" /><polygon
         fill="#939598"
         points="185.2,141.4 84.3,141.4 72.6,150.6 72.6,155.9 198.1,155.9 198.1,150.6   "
         id="polygon21368" /><rect
         x="92.1"
         y="83.4"
         fill="#939598"
         width="85.3"
         height="51.7"
         id="rect21370" /></g><g
       id="laptop_copy_5"><rect
         x="681.6"
         y="76.4"
         fill="#BCBEC0"
         width="100.9"
         height="65"
         id="rect21373" /><polygon
         fill="#939598"
         points="782.5,141.4 681.6,141.4 669.9,150.6 669.9,155.9 795.4,155.9 795.4,150.6   "
         id="polygon21375" /><rect
         x="689.4"
         y="83.4"
         fill="#939598"
         width="85.3"
         height="51.7"
         id="rect21377" /></g></g><g
     id="ips"><text
       transform="matrix(1 0 0 1 203.2478 74.3)"
       fill="#D1D3D4"
       font-family="'Roboto-Medium'"
       font-size="17"
       id="text21380">85.69.96.147</text>
<text
       transform="matrix(1 0 0 1 559.2963 74.3)"
       id="text21382"><tspan
         x="0"
         y="0"
         fill="#D1D3D4"
         font-family="'Roboto-Medium'"
         font-size="17"
         id="tspan21384">122</tspan><tspan
         x="29"
         y="0"
         fill="#D1D3D4"
         font-family="'Roboto-Medium'"
         font-size="17"
         id="tspan21386">.</tspan><tspan
         x="34.4"
         y="0"
         fill="#D1D3D4"
         font-family="'Roboto-Medium'"
         font-size="17"
         id="tspan21388">44.95.115</tspan></text>
</g><g
     id="IP"
     display="none"><g
       id="connections"
       display="inline"><circle
         fill="#F1F2F2"
         cx="253.8"
         cy="118.6"
         r="15.3"
         id="circle21392" /><circle
         fill="#F1F2F2"
         cx="615.1"
         cy="118.6"
         r="15.3"
         id="circle21394" /><rect
         x="252.9"
         y="115.4"
         fill="#F1F2F2"
         width="362.2"
         height="6.5"
         id="rect21396" /></g><g
       id="arrows_copy"
       display="inline"><g
         id="g21399"><line
           fill="#A7A9AC"
           x1="405.3"
           y1="98.3"
           x2="458.6"
           y2="98.3"
           id="line21401" /><g
           id="g21403"><line
             fill="none"
             stroke="#4CBEA2"
             stroke-width="5"
             stroke-miterlimit="10"
             x1="405.3"
             y1="98.3"
             x2="444.2"
             y2="98.3"
             id="line21405" /><g
             id="g21407"><polygon
               fill="#4CBEA2"
               points="441.3,108.2 458.6,98.3 441.3,88.3      "
               id="polygon21409" /></g></g></g><g
         id="g21411"><line
           fill="#A7A9AC"
           x1="458.6"
           y1="141.7"
           x2="405.3"
           y2="141.7"
           id="line21413" /><g
           id="g21415"><line
             fill="none"
             stroke="#4CBEA2"
             stroke-width="5"
             stroke-miterlimit="10"
             x1="458.6"
             y1="141.7"
             x2="419.6"
             y2="141.7"
             id="line21417" /><g
             id="g21419"><polygon
               fill="#4CBEA2"
               points="422.6,131.7 405.3,141.6 422.6,151.6      "
               id="polygon21421" /></g></g></g></g></g><g
     id="multiplicity"
     display="none"><path
       display="inline"
       fill="#F1F2F2"
       d="M615,103.1c-7.4,0-13.6,5.3-15,12.3c-41.3,2.6-58.7,15.9-71.7,25.9   c-11,8.5-19,14.6-37,11.2c-19.8-3.7-22.6-21-26-41.1c-1.1-6.8-2.3-13.9-4.4-20.6c5.3,3.4,11.9,6.1,18.9,6.1c1.3,0,2.7-0.1,4-0.3   c9.8-1.5,18.3-8.5,25.4-20.7c1.1,0.2,2.1,0.4,3.3,0.4c8.5,0,15.3-6.9,15.3-15.3s-6.9-15.3-15.3-15.3s-15.3,6.9-15.3,15.3   c0,4.8,2.2,9.1,5.7,12c-5.9,10-12.6,15.7-20.1,16.8c-15.6,2.4-30.3-15.3-30.4-15.5l0,0c-4.5-5.3-10.8-9.3-19.9-11.1   c-24.3-4.8-33.7,15.8-42.8,35.6c-6.8,14.8-13.4,29.1-25.7,34.4c-0.4,0.2-0.8,0.3-1.1,0.5c-5.6,2.1-12.3,2.5-20.7,0.3   c-10.1-2.6-16.2-7.4-19.8-12.8c19.6-2.9,32.4-8.5,38-16.8c4.6-6.8,4.4-15.1-0.6-24.6c-9-17.2-19.8-17.5-25.4-16.1   c-13.2,3.2-24,20.8-24.1,39.3c0,4.5,0.5,8.6,1.7,12.5c-14.7,1.4-30.4,1.3-42.9,0.7c-1.2-7.3-7.5-12.9-15.1-12.9   c-8.5,0-15.3,6.9-15.3,15.3s6.9,15.3,15.3,15.3c6.9,0,12.8-4.6,14.7-10.9c8.4,0.4,19.5,0.7,31,0.2c5.4-0.2,10.4-0.6,15.2-1   c4.9,9,13.7,15.5,25.7,18.6c11.7,3,20.8,1.9,28.1-1.7c9.4-3.4,26.6-7.5,35.2-0.1c5.9,5.1,6.7,14.8,5.3,24.8   c-8,0.5-14.3,7.2-14.3,15.3c0,8.5,6.9,15.3,15.3,15.3s15.3-6.9,15.3-15.3c0-6.4-3.9-11.8-9.4-14.2c2-14.7-0.6-25.2-7.7-31.3   c-7.3-6.3-17.9-6.6-27.2-5.1c6.2-7.7,10.8-17.5,15-26.8c8.7-19,16.3-35.3,35.1-31.6c20.8,4.1,23.9,22.8,27.2,42.6   c3.3,19.8,7,42.3,31.6,46.9c3.9,0.7,7.4,1.1,10.7,1.1c14.2,0,22.5-6.4,31.9-13.6c13-9.9,28.8-22,67.7-24.5   c1.7,6.6,7.7,11.4,14.8,11.4c8.5,0,15.3-6.9,15.3-15.3S623.5,103.1,615,103.1z M319,114.5c-1.5-4.2-1.9-8.4-1.8-11.6   c0.1-14.9,8.9-30.1,18.8-32.5c0.9-0.2,1.7-0.3,2.5-0.3c6.8,0,11.9,6.8,15.1,12.9c3.7,7.2,4.1,12.9,1,17.5   C349.3,108.2,335.3,112.4,319,114.5z"
       id="path21424" /></g><g
     id="router"><g
       id="connections_copy_2"><circle
         fill="#F1F2F2"
         cx="253.8"
         cy="118.4"
         r="15.3"
         id="circle21428" /><circle
         fill="#F1F2F2"
         cx="615"
         cy="118.4"
         r="15.3"
         id="circle21430" /><rect
         x="257.8"
         y="115.2"
         fill="#F1F2F2"
         width="357.2"
         height="6.5"
         id="rect21432" /></g><g
       id="arrows_copy_3"><g
         id="g21435"><line
           fill="#A7A9AC"
           x1="302.8"
           y1="98.4"
           x2="341.4"
           y2="98.4"
           id="line21437" /><g
           id="g21439"><line
             fill="none"
             stroke="#4CBEA2"
             stroke-width="6"
             stroke-miterlimit="10"
             x1="302.8"
             y1="98.4"
             x2="328.5"
             y2="98.4"
             id="line21441" /><g
             id="g21443"><polygon
               fill="#4CBEA2"
               points="325.9,107.4 341.4,98.4 325.9,89.5      "
               id="polygon21445" /></g></g></g><g
         id="g21447"><line
           fill="#A7A9AC"
           x1="417.1"
           y1="98.4"
           x2="455.8"
           y2="98.4"
           id="line21449" /><g
           id="g21451"><line
             fill="none"
             stroke="#4CBEA2"
             stroke-width="6"
             stroke-miterlimit="10"
             x1="417.1"
             y1="98.4"
             x2="442.9"
             y2="98.4"
             id="line21453" /><g
             id="g21455"><polygon
               fill="#4CBEA2"
               points="440.2,107.4 455.8,98.4 440.2,89.5      "
               id="polygon21457" /></g></g></g><rect
         x="362.8"
         y="102"
         fill="#4CBEA2"
         width="30.9"
         height="33"
         id="rect21459" /><g
         id="g21461"><line
           fill="#A7A9AC"
           x1="531.5"
           y1="98.4"
           x2="570.1"
           y2="98.4"
           id="line21463" /><g
           id="g21465"><line
             fill="none"
             stroke="#4CBEA2"
             stroke-width="6"
             stroke-miterlimit="10"
             x1="531.5"
             y1="98.4"
             x2="557.2"
             y2="98.4"
             id="line21467" /><g
             id="g21469"><polygon
               fill="#4CBEA2"
               points="554.6,107.4 570.1,98.4 554.6,89.5      "
               id="polygon21471" /></g></g></g><rect
         x="477.1"
         y="102"
         fill="#4CBEA2"
         width="30.9"
         height="33"
         id="rect21473" /></g><g
       id="ips_copy"
       transform="translate(-10,-2)"><text
         transform="translate(349.3224,74.3)"
         font-size="12"
         id="text21476"
         style="font-size:12px;font-family:Roboto-Medium;fill:#d1d3d4">88.32.19.5</text>
<text
         transform="translate(450.0409,74.3)"
         font-size="12"
         id="text21478"
         style="font-size:12px;font-family:Roboto-Medium;fill:#d1d3d4">163.172.129.12</text>
</g><path
       style="fill:#939598;fill-opacity:1"
       d="m 527.99499,104.0802 c 0,-1.33751 -0.64849,-2.41806 -1.44046,-2.41806 l -5.09955,0 0,-16.058192 c 0,-1.11621 -0.90869,-2.02329 -2.03787,-2.02329 -1.12351,0 -2.03707,0.90708 -2.03707,2.02329 l 0,16.058192 -55.00155,0 c -0.79683,0 -1.43559,1.08055 -1.43559,2.41806 l -4.29299,18.21117 75.62835,0 -4.28327,-18.21117 z"
       id="path4117-4-0-7-7"
       inkscape:connector-curvature="0" /><path
       style="fill:#b8b9bb;fill-opacity:1"
       d="m 456.6264,121.07221 0,12.42667 c 0,0.78791 0.63795,1.42667 1.43559,1.42667 l 72.80905,0 c 0.79196,0 1.43559,-0.63876 1.43559,-1.42667 l 0,-12.42667 -75.68023,0 z m 6.6235,9.14045 c -1.32373,0 -2.39617,-1.06595 -2.39617,-2.38076 0,-1.31076 1.07244,-2.37752 2.39617,-2.37752 1.32373,0 2.39616,1.06595 2.39616,2.37752 0,1.314 -1.07243,2.38076 -2.39616,2.38076 z m 8.86078,0 c -1.32372,0 -2.39616,-1.06595 -2.39616,-2.38076 0,-1.31076 1.07163,-2.37752 2.39616,-2.37752 1.32454,0 2.39131,1.06595 2.39131,2.37752 8.1e-4,1.314 -1.06677,2.38076 -2.39131,2.38076 z m 8.85674,0 c -1.32373,0 -2.39617,-1.06595 -2.39617,-2.38076 0,-1.31076 1.07163,-2.37752 2.39617,-2.37752 1.32372,0 2.39535,1.06595 2.39535,2.37752 0,1.314 -1.07163,2.38076 -2.39535,2.38076 z m 44.30068,0 c -1.32373,0 -2.39617,-1.06595 -2.39617,-2.38076 0,-1.31076 1.07244,-2.37752 2.39617,-2.37752 1.32453,0 2.39535,1.06595 2.39535,2.37752 0,1.314 -1.07082,2.38076 -2.39535,2.38076 z"
       id="path4119-9-9-3-5"
       inkscape:connector-curvature="0" /><path
       style="fill:#939598;fill-opacity:1"
       d="m 285.07836,104.87146 c 0,-1.33751 -0.64849,-2.41806 -1.44046,-2.41806 l -5.09955,0 0,-16.058192 c 0,-1.11621 -0.90869,-2.02329 -2.03787,-2.02329 -1.12351,0 -2.03707,0.90708 -2.03707,2.02329 l 0,16.058192 -55.00155,0 c -0.79683,0 -1.43559,1.08055 -1.43559,2.41806 l -4.29299,18.21117 75.62835,0 -4.28327,-18.21117 z"
       id="path4117-4-0-7-8"
       inkscape:connector-curvature="0" /><path
       style="fill:#b8b9bb;fill-opacity:1"
       d="m 213.70977,121.86347 0,12.42667 c 0,0.78791 0.63795,1.42666 1.43559,1.42666 l 72.80905,0 c 0.79196,0 1.43559,-0.63875 1.43559,-1.42666 l 0,-12.42667 -75.68023,0 z m 6.6235,9.14045 c -1.32373,0 -2.39617,-1.06595 -2.39617,-2.38076 0,-1.31076 1.07244,-2.37752 2.39617,-2.37752 1.32373,0 2.39616,1.06595 2.39616,2.37752 0,1.314 -1.07243,2.38076 -2.39616,2.38076 z m 8.86078,0 c -1.32372,0 -2.39616,-1.06595 -2.39616,-2.38076 0,-1.31076 1.07163,-2.37752 2.39616,-2.37752 1.32454,0 2.39131,1.06595 2.39131,2.37752 8.1e-4,1.314 -1.06677,2.38076 -2.39131,2.38076 z m 8.85674,0 c -1.32373,0 -2.39617,-1.06595 -2.39617,-2.38076 0,-1.31076 1.07163,-2.37752 2.39617,-2.37752 1.32372,0 2.39535,1.06595 2.39535,2.37752 0,1.314 -1.07163,2.38076 -2.39535,2.38076 z m 44.30068,0 c -1.32373,0 -2.39617,-1.06595 -2.39617,-2.38076 0,-1.31076 1.07244,-2.37752 2.39617,-2.37752 1.32453,0 2.39535,1.06595 2.39535,2.37752 0,1.314 -1.07082,2.38076 -2.39535,2.38076 z"
       id="path4119-9-9-3-3"
       inkscape:connector-curvature="0" /><path
       style="fill:#939598;fill-opacity:1"
       d="m 649.05769,104.87145 c 0,-1.33751 -0.64849,-2.41806 -1.44046,-2.41806 l -5.09955,0 0,-16.058185 c 0,-1.11621 -0.90869,-2.02329 -2.03787,-2.02329 -1.12351,0 -2.03707,0.90708 -2.03707,2.02329 l 0,16.058185 -55.00155,0 c -0.79683,0 -1.43559,1.08055 -1.43559,2.41806 l -4.29299,18.21117 75.62835,0 -4.28327,-18.21117 z"
       id="path4117-4-0-7-6"
       inkscape:connector-curvature="0" /><path
       style="fill:#b8b9bb;fill-opacity:1"
       d="m 577.6891,121.86346 0,12.42667 c 0,0.78791 0.63795,1.42667 1.43559,1.42667 l 72.80905,0 c 0.79196,0 1.43559,-0.63876 1.43559,-1.42667 l 0,-12.42667 -75.68023,0 z m 6.6235,9.14045 c -1.32373,0 -2.39617,-1.06595 -2.39617,-2.38076 0,-1.31076 1.07244,-2.37752 2.39617,-2.37752 1.32373,0 2.39616,1.06595 2.39616,2.37752 0,1.314 -1.07243,2.38076 -2.39616,2.38076 z m 8.86078,0 c -1.32372,0 -2.39616,-1.06595 -2.39616,-2.38076 0,-1.31076 1.07163,-2.37752 2.39616,-2.37752 1.32454,0 2.39131,1.06595 2.39131,2.37752 8.1e-4,1.314 -1.06677,2.38076 -2.39131,2.38076 z m 8.85674,0 c -1.32373,0 -2.39617,-1.06595 -2.39617,-2.38076 0,-1.31076 1.07163,-2.37752 2.39617,-2.37752 1.32372,0 2.39535,1.06595 2.39535,2.37752 0,1.314 -1.07163,2.38076 -2.39535,2.38076 z m 44.30068,0 c -1.32373,0 -2.39617,-1.06595 -2.39617,-2.38076 0,-1.31076 1.07244,-2.37752 2.39617,-2.37752 1.32453,0 2.39535,1.06595 2.39535,2.37752 0,1.314 -1.07082,2.38076 -2.39535,2.38076 z"
       id="path4119-9-9-3-4"
       inkscape:connector-curvature="0" /></g><g
     id="read"
     display="none"><g
       id="connections_copy_3"
       display="inline"><circle
         fill="#F1F2F2"
         cx="253.8"
         cy="118.4"
         r="15.3"
         id="circle21482" /><circle
         fill="#F1F2F2"
         cx="615"
         cy="118.4"
         r="15.3"
         id="circle21484" /><circle
         fill="#F1F2F2"
         cx="431.9"
         cy="118.4"
         r="15.3"
         id="circle21486" /><rect
         x="252.8"
         y="115.2"
         fill="#F1F2F2"
         width="362.2"
         height="6.5"
         id="rect21488" /><text
         transform="matrix(1 0 0 1 388.3569 57.3)"
         fill="#4CBEA2"
         font-family="'Roboto-Medium'"
         font-size="19"
         id="text21490">I love you</text>
</g><g
       id="arrows_copy_4"
       display="inline"><g
         id="g21493"><line
           fill="#A7A9AC"
           x1="405.3"
           y1="88.9"
           x2="458.6"
           y2="88.9"
           id="line21495" /><g
           id="g21497"><line
             fill="none"
             stroke="#4CBEA2"
             stroke-width="5"
             stroke-miterlimit="10"
             x1="405.3"
             y1="88.9"
             x2="444.2"
             y2="88.9"
             id="line21499" /><g
             id="g21501"><polygon
               fill="#4CBEA2"
               points="441.3,98.9 458.6,88.9 441.3,79      "
               id="polygon21503" /></g></g></g></g></g><g
     id="encrypt"
     display="none"><g
       id="connections_copy_4"
       display="inline"><circle
         fill="#F1F2F2"
         cx="253.8"
         cy="118.4"
         r="15.3"
         id="circle21507" /><circle
         fill="#F1F2F2"
         cx="615"
         cy="118.4"
         r="15.3"
         id="circle21509" /><circle
         fill="#F1F2F2"
         cx="431.9"
         cy="118.4"
         r="15.3"
         id="circle21511" /><rect
         x="252.8"
         y="115.2"
         fill="#F1F2F2"
         width="362.2"
         height="6.5"
         id="rect21513" /><text
         transform="matrix(1 0 0 1 368.1044 57.3)"
         fill="#4CBEA2"
         font-family="'Roboto-Medium'"
         font-size="19"
         id="text21515">Aoias3xa2pp9</text>
<text
         transform="matrix(1 0 0 1 74.4094 57.3)"
         fill="#4CBEA2"
         font-family="'Roboto-Medium'"
         font-size="19"
         id="text21517">Aoias3xa2pp9</text>
<text
         transform="matrix(1 0 0 1 94.6617 33.9667)"
         fill="#3987C8"
         font-family="'Roboto-Medium'"
         font-size="19"
         id="text21519">I love you</text>
<text
         transform="matrix(1 0 0 1 671.7424 57.3)"
         fill="#4CBEA2"
         font-family="'Roboto-Medium'"
         font-size="19"
         id="text21521">Aoias3xa2pp9</text>
<text
         transform="matrix(1 0 0 1 691.9946 33.9667)"
         fill="#3987C8"
         font-family="'Roboto-Medium'"
         font-size="19"
         id="text21523">I love you</text>
</g><g
       id="arrows_copy_5"
       display="inline"><g
         id="g21526"><line
           fill="#A7A9AC"
           x1="405.3"
           y1="88.9"
           x2="458.6"
           y2="88.9"
           id="line21528" /><g
           id="g21530"><line
             fill="none"
             stroke="#4CBEA2"
             stroke-width="5"
             stroke-miterlimit="10"
             x1="405.3"
             y1="88.9"
             x2="444.2"
             y2="88.9"
             id="line21532" /><g
             id="g21534"><polygon
               fill="#4CBEA2"
               points="441.3,98.9 458.6,88.9 441.3,79      "
               id="polygon21536" /></g></g></g></g></g><g
     id="rsa"
     display="none"><rect
       x="180.5"
       y="60.4"
       display="inline"
       fill="#3987C8"
       width="149"
       height="47"
       id="rect21539" /><text
       transform="matrix(1 0 0 1 194.457 45.3506)"
       display="inline"
       fill="#E6E7E8"
       font-family="'Roboto-Medium'"
       font-size="22"
       id="text21541">PUBLIC KEY</text>
<rect
       x="534.5"
       y="60.3"
       display="inline"
       fill="#4CBEA2"
       width="149"
       height="47"
       id="rect21543" /><text
       transform="matrix(1 0 0 1 542.5063 45.3503)"
       display="inline"
       fill="#E6E7E8"
       font-family="'Roboto-Medium'"
       font-size="22"
       id="text21545">PRIVATE KEY</text>
<g
       id="messages"><text
         transform="matrix(1 0 0 1 330.1843 173.1501)"
         display="inline"
         fill="#3987C8"
         font-family="'Roboto-Medium'"
         font-size="33"
         id="text21548">Aoias3xa2pp9</text>
<text
         transform="matrix(1 0 0 1 40.3309 173.1497)"
         display="inline"
         fill="#F1F2F2"
         font-family="'Roboto-Medium'"
         font-size="33"
         id="text21550">I love you</text>
<g
         display="inline"
         id="g21552"><g
           id="g21554"><line
             fill="none"
             stroke="#3987C8"
             stroke-width="6"
             stroke-miterlimit="10"
             x1="216"
             y1="164"
             x2="277.8"
             y2="164"
             id="line21556" /><g
             id="g21558"><polygon
               fill="#3987C8"
               points="274.3,176 295,164 274.3,152      "
               id="polygon21560" /></g></g></g><g
         display="inline"
         id="g21562"><g
           id="g21564"><line
             fill="none"
             stroke="#4CBEA2"
             stroke-width="6"
             stroke-miterlimit="10"
             x1="569.5"
             y1="164"
             x2="631.3"
             y2="164"
             id="line21566" /><g
             id="g21568"><polygon
               fill="#4CBEA2"
               points="627.8,176 648.5,164 627.8,152      "
               id="polygon21570" /></g></g></g><text
         transform="matrix(1 0 0 1 671.3307 173.1498)"
         display="inline"
         fill="#4CBEA2"
         font-family="'Roboto-Medium'"
         font-size="33"
         id="text21572">I love you</text>
</g><g
       id="belongs"
       display="inline"><g
         id="g21575"><g
           id="g21577"><polyline
             fill="none"
             stroke="#D1D3D4"
             stroke-width="6"
             stroke-miterlimit="10"
             points="747,122 747,128 741,128     "
             id="polyline21579" /><line
             fill="none"
             stroke="#D1D3D4"
             stroke-width="6"
             stroke-miterlimit="10"
             stroke-dasharray="11.6522,11.6522"
             x1="729.3"
             y1="128"
             x2="478.8"
             y2="128"
             id="line21581" /><polyline
             fill="none"
             stroke="#D1D3D4"
             stroke-width="6"
             stroke-miterlimit="10"
             points="473,128 467,128 467,122     "
             id="polyline21583" /><line
             fill="none"
             stroke="#D1D3D4"
             stroke-width="6"
             stroke-miterlimit="10"
             stroke-dasharray="11.8889,11.8889"
             x1="467"
             y1="110.1"
             x2="467"
             y2="20.9"
             id="line21585" /><polyline
             fill="none"
             stroke="#D1D3D4"
             stroke-width="6"
             stroke-miterlimit="10"
             points="467,15 467,9 473,9     "
             id="polyline21587" /><line
             fill="none"
             stroke="#D1D3D4"
             stroke-width="6"
             stroke-miterlimit="10"
             stroke-dasharray="11.6522,11.6522"
             x1="484.7"
             y1="9"
             x2="735.2"
             y2="9"
             id="line21589" /><polyline
             fill="none"
             stroke="#D1D3D4"
             stroke-width="6"
             stroke-miterlimit="10"
             points="741,9 747,9 747,15     "
             id="polyline21591" /><line
             fill="none"
             stroke="#D1D3D4"
             stroke-width="6"
             stroke-miterlimit="10"
             stroke-dasharray="11.8889,11.8889"
             x1="747"
             y1="26.9"
             x2="747"
             y2="116.1"
             id="line21593" /></g></g></g></g><g
     id="rsa_dist"
     display="none"><rect
       x="32.5"
       y="24.5"
       display="inline"
       fill="#3987C8"
       width="149"
       height="47"
       id="rect21596" /><rect
       x="32.5"
       y="143.5"
       display="inline"
       fill="#3987C8"
       width="149"
       height="47"
       id="rect21598" /><rect
       x="577.5"
       y="83.9"
       display="inline"
       fill="#4CBEA2"
       width="149"
       height="47"
       id="rect21600" /><g
       id="messages_copy"><text
         transform="matrix(1 0 0 1 330.1843 173.1501)"
         display="inline"
         fill="#3987C8"
         font-family="'Roboto-Medium'"
         font-size="33"
         id="text21603">Aoias3xa2pp9</text>
<text
         transform="matrix(1 0 0 1 40.3309 173.1497)"
         display="inline"
         fill="#F1F2F2"
         font-family="'Roboto-Medium'"
         font-size="33"
         id="text21605">I love you</text>
<g
         display="inline"
         id="g21607"><g
           id="g21609"><line
             fill="none"
             stroke="#3987C8"
             stroke-width="6"
             stroke-miterlimit="10"
             x1="216"
             y1="164"
             x2="277.8"
             y2="164"
             id="line21611" /><g
             id="g21613"><polygon
               fill="#3987C8"
               points="274.3,176 295,164 274.3,152      "
               id="polygon21615" /></g></g></g><g
         display="inline"
         id="g21617"><g
           id="g21619"><line
             fill="none"
             stroke="#4CBEA2"
             stroke-width="6"
             stroke-miterlimit="10"
             x1="569.5"
             y1="164"
             x2="631.3"
             y2="164"
             id="line21621" /><g
             id="g21623"><polygon
               fill="#4CBEA2"
               points="627.8,176 648.5,164 627.8,152      "
               id="polygon21625" /></g></g></g><text
         transform="matrix(1 0 0 1 671.3307 173.1498)"
         display="inline"
         fill="#4CBEA2"
         font-family="'Roboto-Medium'"
         font-size="33"
         id="text21627">I love you</text>
</g><g
       id="belongs_copy"
       display="inline"><g
         id="g21630"><g
           id="g21632"><polyline
             fill="none"
             stroke="#D1D3D4"
             stroke-width="6"
             stroke-miterlimit="10"
             points="790,161 790,167 784,167     "
             id="polyline21634" /><line
             fill="none"
             stroke="#D1D3D4"
             stroke-width="6"
             stroke-miterlimit="10"
             stroke-dasharray="11.6522,11.6522"
             x1="772.3"
             y1="167"
             x2="521.8"
             y2="167"
             id="line21636" /><polyline
             fill="none"
             stroke="#D1D3D4"
             stroke-width="6"
             stroke-miterlimit="10"
             points="516,167 510,167 510,161     "
             id="polyline21638" /><line
             fill="none"
             stroke="#D1D3D4"
             stroke-width="6"
             stroke-miterlimit="10"
             stroke-dasharray="11.8889,11.8889"
             x1="510"
             y1="149.1"
             x2="510"
             y2="59.9"
             id="line21640" /><polyline
             fill="none"
             stroke="#D1D3D4"
             stroke-width="6"
             stroke-miterlimit="10"
             points="510,54 510,48 516,48     "
             id="polyline21642" /><line
             fill="none"
             stroke="#D1D3D4"
             stroke-width="6"
             stroke-miterlimit="10"
             stroke-dasharray="11.6522,11.6522"
             x1="527.7"
             y1="48"
             x2="778.2"
             y2="48"
             id="line21644" /><polyline
             fill="none"
             stroke="#D1D3D4"
             stroke-width="6"
             stroke-miterlimit="10"
             points="784,48 790,48 790,54     "
             id="polyline21646" /><line
             fill="none"
             stroke="#D1D3D4"
             stroke-width="6"
             stroke-miterlimit="10"
             stroke-dasharray="11.8889,11.8889"
             x1="790"
             y1="65.9"
             x2="790"
             y2="155.1"
             id="line21648" /></g></g></g><g
       id="person"
       display="inline"><path
         fill="#E6E7E8"
         d="M259.8,158.9c4.4-2.6,7.3-7.4,7.3-12.9c0-8.3-6.7-15.1-15.1-15.1s-15.1,6.7-15.1,15.1    c0,5.5,2.9,10.3,7.3,12.9C229.8,162.5,229,176,229,176v23h46v-23C275,176,274.2,162.5,259.8,158.9z"
         id="path21651" /></g><g
       id="person_copy"
       display="inline"><path
         fill="#E6E7E8"
         d="M259.8,158.9c4.4-2.6,7.3-7.4,7.3-12.9c0-8.3-6.7-15.1-15.1-15.1s-15.1,6.7-15.1,15.1    c0,5.5,2.9,10.3,7.3,12.9C229.8,162.5,229,176,229,176v23h46v-23C275,176,274.2,162.5,259.8,158.9z"
         id="path21654" /><path
         fill="#E6E7E8"
         d="M259.8,41.9c4.4-2.6,7.3-7.4,7.3-12.9c0-8.3-6.7-15.1-15.1-15.1s-15.1,6.7-15.1,15.1    c0,5.5,2.9,10.3,7.3,12.9C229.8,45.6,229,59,229,59v23h46V59C275,59,274.2,45.6,259.8,41.9z"
         id="path21656" /><g
         id="g21658"><g
           id="g21660"><polyline
             fill="none"
             stroke="#3987C8"
             stroke-width="7"
             stroke-miterlimit="10"
             points="325,175 420.9,175 420.9,132       458.9,132     "
             id="polyline21662" /><g
             id="g21664"><polygon
               fill="#3987C8"
               points="454.8,146 479,132 454.8,118      "
               id="polygon21666" /></g></g></g><g
         id="g21668"><g
           id="g21670"><polyline
             fill="none"
             stroke="#3987C8"
             stroke-width="7"
             stroke-miterlimit="10"
             points="325,40.9 420.9,40.9 420.9,83.9       458.9,83.9     "
             id="polyline21672" /><g
             id="g21674"><polygon
               fill="#3987C8"
               points="454.8,97.8 479,83.9 454.8,69.9      "
               id="polygon21676" /></g></g></g></g></g><g
     id="Packet_formatting"
     display="none"><rect
       x="47.1"
       y="18.1"
       display="inline"
       fill="#595A5C"
       width="750.9"
       height="169.2"
       id="rect21679" /><g
       id="message_1_"
       display="inline"><rect
         x="71.1"
         y="96.2"
         fill="#818285"
         width="703.8"
         height="77.1"
         id="rect21682" /><rect
         x="71.1"
         y="96.2"
         fill="#818285"
         width="703.8"
         height="77.1"
         id="rect21684" /><rect
         x="429.5"
         y="111.7"
         display="none"
         fill="#A8AAAD"
         width="323.4"
         height="46.1"
         id="rect21686" /><text
         transform="matrix(1 0 0 1 361.9355 143.7676)"
         fill="#F2F2F2"
         font-family="'Roboto-Medium'"
         font-size="28.0329"
         id="text21688">MESSAGE</text>
</g><g
       id="Layer_29_1_"
       display="inline"><rect
         x="446.5"
         y="33.1"
         fill="#3A87C8"
         width="328.4"
         height="46.1"
         id="rect21691" /><rect
         x="467.6"
         y="40.9"
         fill="#296FA0"
         width="104.1"
         height="30.4"
         id="rect21693" /><text
         transform="matrix(1 0 0 1 510.6602 67.1777)"
         fill="#F2F2F2"
         font-family="'Roboto-Medium'"
         font-size="28.0329"
         id="text21695">IP</text>
<rect
         x="648.8"
         y="40.9"
         fill="#296FA0"
         width="104.1"
         height="30.4"
         id="rect21697" /><text
         transform="matrix(1 0 0 1 669.166 67.1777)"
         fill="#F2F2F2"
         font-family="'Roboto-Medium'"
         font-size="28.0329"
         id="text21699">PORT</text>
</g><g
       id="Layer_30_1_"
       display="inline"><rect
         x="71.1"
         y="33.1"
         fill="#4EBFA2"
         width="328.4"
         height="46.1"
         id="rect21702" /><rect
         x="92.1"
         y="40.9"
         fill="#27A07D"
         width="104.1"
         height="30.4"
         id="rect21704" /><text
         transform="matrix(1 0 0 1 135.2192 67.1777)"
         fill="#F2F2F2"
         font-family="'Roboto-Medium'"
         font-size="28.0329"
         id="text21706">IP</text>
<rect
         x="273.3"
         y="40.9"
         fill="#27A07D"
         width="104.1"
         height="30.4"
         id="rect21708" /><text
         transform="matrix(1 0 0 1 293.7241 67.1777)"
         fill="#F2F2F2"
         font-family="'Roboto-Medium'"
         font-size="28.0329"
         id="text21710">PORT</text>
</g><g
       id="Layer_30_copy_1_"><rect
         x="92.1"
         y="111.7"
         display="inline"
         fill="#E16F50"
         width="328.4"
         height="46.1"
         id="rect21713" /><rect
         x="113.1"
         y="119.5"
         display="inline"
         fill="#BE563C"
         width="104.1"
         height="30.4"
         id="rect21715" /><text
         transform="matrix(1 0 0 1 156.2437 145.7695)"
         display="inline"
         fill="#F2F2F2"
         font-family="'Roboto-Medium'"
         font-size="28.0329"
         id="text21717">IP</text>
<rect
         x="294.3"
         y="119.5"
         display="inline"
         fill="#BE563C"
         width="104.1"
         height="30.4"
         id="rect21719" /><text
         transform="matrix(1 0 0 1 314.7485 145.7695)"
         display="inline"
         fill="#F2F2F2"
         font-family="'Roboto-Medium'"
         font-size="28.0329"
         id="text21721">PORT</text>
</g></g><g
     id="vpn"
     display="none"><circle
       display="inline"
       fill="#F1F2F2"
       cx="421"
       cy="127.5"
       r="33.5"
       id="circle21724" /><circle
       display="inline"
       fill="none"
       stroke="#F1F2F2"
       stroke-width="6"
       stroke-miterlimit="10"
       stroke-dasharray="12"
       cx="421"
       cy="127.5"
       r="50.5"
       id="circle21726" /><circle
       display="inline"
       fill="#F1F2F2"
       cx="120"
       cy="127.5"
       r="33.5"
       id="circle21728" /><circle
       display="inline"
       fill="#F1F2F2"
       cx="721.9"
       cy="127.5"
       r="33.5"
       id="circle21730" /><line
       display="inline"
       fill="none"
       stroke="#F1F2F2"
       stroke-width="7"
       stroke-miterlimit="10"
       x1="120"
       y1="127.5"
       x2="421"
       y2="127.5"
       id="line21732" /><line
       fill="none"
       stroke="#F1F2F2"
       stroke-width="7"
       stroke-miterlimit="10"
       x1="420.9"
       y1="127.5"
       x2="721.9"
       y2="127.5"
       id="line21734" /><g
       display="inline"
       id="g21736"><g
         id="g21738"><line
           fill="none"
           stroke="#4CBEA2"
           stroke-width="7"
           stroke-miterlimit="10"
           x1="221"
           y1="94"
           x2="304.9"
           y2="94"
           id="line21740" /><g
           id="g21742"><polygon
             fill="#4CBEA2"
             points="301.9,104.5 320,94 301.9,83.5     "
             id="polygon21744" /></g></g></g><g
       display="inline"
       id="g21746"><g
         id="g21748"><line
           fill="none"
           stroke="#3987C8"
           stroke-width="7"
           stroke-miterlimit="10"
           x1="320"
           y1="166"
           x2="236.1"
           y2="166"
           id="line21750" /><g
           id="g21752"><polygon
             fill="#3987C8"
             points="239.1,155.5 221,166 239.1,176.5     "
             id="polygon21754" /></g></g></g><g
       display="inline"
       id="g21756"><g
         id="g21758"><line
           fill="none"
           stroke="#E26F50"
           stroke-width="7"
           stroke-miterlimit="10"
           x1="521.9"
           y1="94"
           x2="605.8"
           y2="94"
           id="line21760" /><g
           id="g21762"><polygon
             fill="#E26F50"
             points="602.7,104.5 620.9,94 602.7,83.5     "
             id="polygon21764" /></g></g></g><g
       display="inline"
       id="g21766"><g
         id="g21768"><line
           fill="none"
           stroke="#E26F50"
           stroke-width="7"
           stroke-miterlimit="10"
           x1="620.9"
           y1="166"
           x2="537"
           y2="166"
           id="line21770" /><g
           id="g21772"><polygon
             fill="#E26F50"
             points="540,155.5 521.9,166 540,176.5     "
             id="polygon21774" /></g></g></g><text
       transform="matrix(1 0 0 1 393.3421 51)"
       display="inline"
       fill="#F1F2F2"
       font-family="'Roboto-Medium'"
       font-size="28"
       id="text21776">VPN</text>
<text
       transform="matrix(1 0 0 1 683.8747 51)"
       display="inline"
       fill="#F1F2F2"
       font-family="'Roboto-Medium'"
       font-size="28"
       id="text21778">THEM</text>
<text
       transform="matrix(1 0 0 1 91.9932 51)"
       display="inline"
       fill="#F1F2F2"
       font-family="'Roboto-Medium'"
       font-size="28"
       id="text21780">YOU</text>
</g><path
     style="fill:#939598;fill-opacity:1"
     d="m 415.61561,104.26371 c 0,-1.33751 -0.64849,-2.41806 -1.44046,-2.41806 l -5.09955,0 0,-16.058189 c 0,-1.11621 -0.90869,-2.02329 -2.03787,-2.02329 -1.12351,0 -2.03707,0.90708 -2.03707,2.02329 l 0,16.058189 -55.00155,0 c -0.79683,0 -1.43559,1.08055 -1.43559,2.41806 l -4.29299,18.21117 75.62835,0 -4.28327,-18.21117 z"
     id="path4117-4-0-7"
     inkscape:connector-curvature="0" /><path
     style="fill:#b8b9bb;fill-opacity:1"
     d="m 344.24702,121.25572 0,12.42667 c 0,0.78791 0.63795,1.42667 1.43559,1.42667 l 72.80905,0 c 0.79196,0 1.43559,-0.63876 1.43559,-1.42667 l 0,-12.42667 -75.68023,0 z m 6.6235,9.14045 c -1.32373,0 -2.39617,-1.06595 -2.39617,-2.38076 0,-1.31076 1.07244,-2.37752 2.39617,-2.37752 1.32373,0 2.39616,1.06595 2.39616,2.37752 0,1.314 -1.07243,2.38076 -2.39616,2.38076 z m 8.86078,0 c -1.32372,0 -2.39616,-1.06595 -2.39616,-2.38076 0,-1.31076 1.07163,-2.37752 2.39616,-2.37752 1.32454,0 2.39131,1.06595 2.39131,2.37752 8.1e-4,1.314 -1.06677,2.38076 -2.39131,2.38076 z m 8.85674,0 c -1.32373,0 -2.39617,-1.06595 -2.39617,-2.38076 0,-1.31076 1.07163,-2.37752 2.39617,-2.37752 1.32372,0 2.39535,1.06595 2.39535,2.37752 0,1.314 -1.07163,2.38076 -2.39535,2.38076 z m 44.30068,0 c -1.32373,0 -2.39617,-1.06595 -2.39617,-2.38076 0,-1.31076 1.07244,-2.37752 2.39617,-2.37752 1.32453,0 2.39535,1.06595 2.39535,2.37752 0,1.314 -1.07082,2.38076 -2.39535,2.38076 z"
     id="path4119-9-9-3"
     inkscape:connector-curvature="0" /></svg>