<?xml version="1.0" encoding="utf-8"?>
<!-- Generator: Adobe Illustrator 18.0.0, SVG Export Plug-In . SVG Version: 6.00 Build 0)  -->
<!DOCTYPE svg PUBLIC "-//W3C//DTD SVG 1.1//EN" "http://www.w3.org/Graphics/SVG/1.1/DTD/svg11.dtd">
<svg version="1.1" xmlns="http://www.w3.org/2000/svg" xmlns:xlink="http://www.w3.org/1999/xlink" x="0px" y="0px"
	 viewBox="0 0 841.9 215" enable-background="new 0 0 841.9 215" xml:space="preserve">
<g id="Layer_31" display="none">
	<rect display="inline" fill="#414042" width="841.9" height="215"/>
</g>
<g id="laptops" display="none">
	<g id="laptop_copy_4" display="inline">
		<rect x="84.3" y="76.4" fill="#BCBEC0" width="100.9" height="65"/>
		<polygon fill="#939598" points="185.2,141.4 84.3,141.4 72.6,150.6 72.6,155.9 198.1,155.9 198.1,150.6 		"/>
		<rect x="92.1" y="83.4" fill="#939598" width="85.3" height="51.7"/>
	</g>
	<g id="laptop_copy_5" display="inline">
		<rect x="681.6" y="76.4" fill="#BCBEC0" width="100.9" height="65"/>
		<polygon fill="#939598" points="782.5,141.4 681.6,141.4 669.9,150.6 669.9,155.9 795.4,155.9 795.4,150.6 		"/>
		<rect x="689.4" y="83.4" fill="#939598" width="85.3" height="51.7"/>
	</g>
</g>
<g id="ips" display="none">
	<text transform="matrix(1 0 0 1 203.2478 74.3)" display="inline" fill="#D1D3D4" font-family="'Roboto-Medium'" font-size="17">85.69.96.147</text>
	<text transform="matrix(1 0 0 1 559.2963 74.3)" display="inline"><tspan x="0" y="0" fill="#D1D3D4" font-family="'Roboto-Medium'" font-size="17">122</tspan><tspan x="29" y="0" fill="#D1D3D4" font-family="'Roboto-Medium'" font-size="17">.</tspan><tspan x="34.4" y="0" fill="#D1D3D4" font-family="'Roboto-Medium'" font-size="17">44.95.115</tspan></text>
</g>
<g id="IP" display="none">
	<g id="connections" display="inline">
		<circle fill="#F1F2F2" cx="253.8" cy="118.6" r="15.3"/>
		<circle fill="#F1F2F2" cx="615.1" cy="118.6" r="15.3"/>
		<rect x="252.9" y="115.4" fill="#F1F2F2" width="362.2" height="6.5"/>
	</g>
	<g id="arrows_copy" display="inline">
		<g>
			<line fill="#A7A9AC" x1="405.3" y1="98.3" x2="458.6" y2="98.3"/>
			<g>
				<line fill="none" stroke="#4CBEA2" stroke-width="5" stroke-miterlimit="10" x1="405.3" y1="98.3" x2="444.2" y2="98.3"/>
				<g>
					<polygon fill="#4CBEA2" points="441.3,108.2 458.6,98.3 441.3,88.3 					"/>
				</g>
			</g>
		</g>
		<g>
			<line fill="#A7A9AC" x1="458.6" y1="141.7" x2="405.3" y2="141.7"/>
			<g>
				<line fill="none" stroke="#4CBEA2" stroke-width="5" stroke-miterlimit="10" x1="458.6" y1="141.7" x2="419.6" y2="141.7"/>
				<g>
					<polygon fill="#4CBEA2" points="422.6,131.7 405.3,141.6 422.6,151.6 					"/>
				</g>
			</g>
		</g>
	</g>
</g>
<g id="multiplicity" display="none">
	<path display="inline" fill="#F1F2F2" d="M615,103.1c-7.4,0-13.6,5.3-15,12.3c-41.3,2.6-58.7,15.9-71.7,25.9
		c-11,8.5-19,14.6-37,11.2c-19.8-3.7-22.6-21-26-41.1c-1.1-6.8-2.3-13.9-4.4-20.6c5.3,3.4,11.9,6.1,18.9,6.1c1.3,0,2.7-0.1,4-0.3
		c9.8-1.5,18.3-8.5,25.4-20.7c1.1,0.2,2.1,0.4,3.3,0.4c8.5,0,15.3-6.9,15.3-15.3s-6.9-15.3-15.3-15.3s-15.3,6.9-15.3,15.3
		c0,4.8,2.2,9.1,5.7,12c-5.9,10-12.6,15.7-20.1,16.8c-15.6,2.4-30.3-15.3-30.4-15.5l0,0c-4.5-5.3-10.8-9.3-19.9-11.1
		c-24.3-4.8-33.7,15.8-42.8,35.6c-6.8,14.8-13.4,29.1-25.7,34.4c-0.4,0.2-0.8,0.3-1.1,0.5c-5.6,2.1-12.3,2.5-20.7,0.3
		c-10.1-2.6-16.2-7.4-19.8-12.8c19.6-2.9,32.4-8.5,38-16.8c4.6-6.8,4.4-15.1-0.6-24.6c-9-17.2-19.8-17.5-25.4-16.1
		c-13.2,3.2-24,20.8-24.1,39.3c0,4.5,0.5,8.6,1.7,12.5c-14.7,1.4-30.4,1.3-42.9,0.7c-1.2-7.3-7.5-12.9-15.1-12.9
		c-8.5,0-15.3,6.9-15.3,15.3s6.9,15.3,15.3,15.3c6.9,0,12.8-4.6,14.7-10.9c8.4,0.4,19.5,0.7,31,0.2c5.4-0.2,10.4-0.6,15.2-1
		c4.9,9,13.7,15.5,25.7,18.6c11.7,3,20.8,1.9,28.1-1.7c9.4-3.4,26.6-7.5,35.2-0.1c5.9,5.1,6.7,14.8,5.3,24.8
		c-8,0.5-14.3,7.2-14.3,15.3c0,8.5,6.9,15.3,15.3,15.3s15.3-6.9,15.3-15.3c0-6.4-3.9-11.8-9.4-14.2c2-14.7-0.6-25.2-7.7-31.3
		c-7.3-6.3-17.9-6.6-27.2-5.1c6.2-7.7,10.8-17.5,15-26.8c8.7-19,16.3-35.3,35.1-31.6c20.8,4.1,23.9,22.8,27.2,42.6
		c3.3,19.8,7,42.3,31.6,46.9c3.9,0.7,7.4,1.1,10.7,1.1c14.2,0,22.5-6.4,31.9-13.6c13-9.9,28.8-22,67.7-24.5
		c1.7,6.6,7.7,11.4,14.8,11.4c8.5,0,15.3-6.9,15.3-15.3S623.5,103.1,615,103.1z M319,114.5c-1.5-4.2-1.9-8.4-1.8-11.6
		c0.1-14.9,8.9-30.1,18.8-32.5c0.9-0.2,1.7-0.3,2.5-0.3c6.8,0,11.9,6.8,15.1,12.9c3.7,7.2,4.1,12.9,1,17.5
		C349.3,108.2,335.3,112.4,319,114.5z"/>
</g>
<g id="IP_copy" display="none">
	<g id="connections_copy_2" display="inline">
		<circle fill="#F1F2F2" cx="253.8" cy="118.4" r="15.3"/>
		<circle fill="#F1F2F2" cx="615" cy="118.4" r="15.3"/>
		<rect x="257.8" y="115.2" fill="#F1F2F2" width="357.2" height="6.5"/>
	</g>
	<g id="arrows_copy_3" display="inline">
		<g>
			<line fill="#A7A9AC" x1="327.9" y1="98" x2="381.2" y2="98"/>
			<g>
				<line fill="none" stroke="#4CBEA2" stroke-width="5" stroke-miterlimit="10" x1="327.9" y1="98" x2="366.8" y2="98"/>
				<g>
					<polygon fill="#4CBEA2" points="363.9,108 381.2,98 363.9,88.1 					"/>
				</g>
			</g>
		</g>
		<g>
			<line fill="#A7A9AC" x1="485.6" y1="98" x2="538.9" y2="98"/>
			<g>
				<line fill="none" stroke="#4CBEA2" stroke-width="5" stroke-miterlimit="10" x1="485.6" y1="98" x2="524.5" y2="98"/>
				<g>
					<polygon fill="#4CBEA2" points="521.6,108 538.9,98 521.6,88.1 					"/>
				</g>
			</g>
		</g>
		<g>
			<line fill="#A7A9AC" x1="381.2" y1="141.4" x2="327.9" y2="141.4"/>
			<g>
				<line fill="none" stroke="#4CBEA2" stroke-width="5" stroke-miterlimit="10" x1="381.2" y1="141.4" x2="342.2" y2="141.4"/>
				<g>
					<polygon fill="#4CBEA2" points="345.2,131.4 327.9,141.4 345.2,151.4 					"/>
				</g>
			</g>
		</g>
		<g>
			<line fill="#A7A9AC" x1="538.9" y1="141.4" x2="485.6" y2="141.4"/>
			<g>
				<line fill="none" stroke="#4CBEA2" stroke-width="5" stroke-miterlimit="10" x1="538.9" y1="141.4" x2="499.9" y2="141.4"/>
				<g>
					<polygon fill="#4CBEA2" points="502.8,131.4 485.6,141.4 502.8,151.4 					"/>
				</g>
			</g>
		</g>
		<rect x="410.6" y="95.7" fill="#4CBEA2" width="42.6" height="45.5"/>
	</g>
</g>
<g id="read" display="none">
	<g id="connections_copy_3" display="inline">
		<circle fill="#F1F2F2" cx="253.8" cy="118.4" r="15.3"/>
		<circle fill="#F1F2F2" cx="615" cy="118.4" r="15.3"/>
		<circle fill="#F1F2F2" cx="431.9" cy="118.4" r="15.3"/>
		<rect x="252.8" y="115.2" fill="#F1F2F2" width="362.2" height="6.5"/>
		<text transform="matrix(1 0 0 1 388.3569 57.3)" fill="#4CBEA2" font-family="'Roboto-Medium'" font-size="19">I love you</text>
	</g>
	<g id="arrows_copy_4" display="inline">
		<g>
			<line fill="#A7A9AC" x1="405.3" y1="88.9" x2="458.6" y2="88.9"/>
			<g>
				<line fill="none" stroke="#4CBEA2" stroke-width="5" stroke-miterlimit="10" x1="405.3" y1="88.9" x2="444.2" y2="88.9"/>
				<g>
					<polygon fill="#4CBEA2" points="441.3,98.9 458.6,88.9 441.3,79 					"/>
				</g>
			</g>
		</g>
	</g>
</g>
<g id="encrypt" display="none">
	<g id="connections_copy_4" display="inline">
		<circle fill="#F1F2F2" cx="253.8" cy="118.4" r="15.3"/>
		<circle fill="#F1F2F2" cx="615" cy="118.4" r="15.3"/>
		<circle fill="#F1F2F2" cx="431.9" cy="118.4" r="15.3"/>
		<rect x="252.8" y="115.2" fill="#F1F2F2" width="362.2" height="6.5"/>
		<text transform="matrix(1 0 0 1 368.1044 57.3)" fill="#4CBEA2" font-family="'Roboto-Medium'" font-size="19">Aoias3xa2pp9</text>
		<text transform="matrix(1 0 0 1 74.4094 57.3)" fill="#4CBEA2" font-family="'Roboto-Medium'" font-size="19">Aoias3xa2pp9</text>
		<text transform="matrix(1 0 0 1 94.6617 33.9667)" fill="#3987C8" font-family="'Roboto-Medium'" font-size="19">I love you</text>
		<text transform="matrix(1 0 0 1 671.7424 57.3)" fill="#4CBEA2" font-family="'Roboto-Medium'" font-size="19">Aoias3xa2pp9</text>
		<text transform="matrix(1 0 0 1 691.9946 33.9667)" fill="#3987C8" font-family="'Roboto-Medium'" font-size="19">I love you</text>
	</g>
	<g id="arrows_copy_5" display="inline">
		<g>
			<line fill="#A7A9AC" x1="405.3" y1="88.9" x2="458.6" y2="88.9"/>
			<g>
				<line fill="none" stroke="#4CBEA2" stroke-width="5" stroke-miterlimit="10" x1="405.3" y1="88.9" x2="444.2" y2="88.9"/>
				<g>
					<polygon fill="#4CBEA2" points="441.3,98.9 458.6,88.9 441.3,79 					"/>
				</g>
			</g>
		</g>
	</g>
</g>
<g id="rsa" display="none">
	<rect x="180.5" y="60.4" display="inline" fill="#3987C8" width="149" height="47"/>
	<text transform="matrix(1 0 0 1 194.457 45.3506)" display="inline" fill="#E6E7E8" font-family="'Roboto-Medium'" font-size="22">PUBLIC KEY</text>
	<rect x="534.5" y="60.3" display="inline" fill="#4CBEA2" width="149" height="47"/>
	
		<text transform="matrix(1 0 0 1 542.5063 45.3503)" display="inline" fill="#E6E7E8" font-family="'Roboto-Medium'" font-size="22">PRIVATE KEY</text>
	<g id="messages">
		
			<text transform="matrix(1 0 0 1 330.1843 173.1501)" display="inline" fill="#3987C8" font-family="'Roboto-Medium'" font-size="33">Aoias3xa2pp9</text>
		
			<text transform="matrix(1 0 0 1 40.3309 173.1497)" display="inline" fill="#F1F2F2" font-family="'Roboto-Medium'" font-size="33">I love you</text>
		<g display="inline">
			<g>
				<line fill="none" stroke="#3987C8" stroke-width="6" stroke-miterlimit="10" x1="216" y1="164" x2="277.8" y2="164"/>
				<g>
					<polygon fill="#3987C8" points="274.3,176 295,164 274.3,152 					"/>
				</g>
			</g>
		</g>
		<g display="inline">
			<g>
				<line fill="none" stroke="#4CBEA2" stroke-width="6" stroke-miterlimit="10" x1="569.5" y1="164" x2="631.3" y2="164"/>
				<g>
					<polygon fill="#4CBEA2" points="627.8,176 648.5,164 627.8,152 					"/>
				</g>
			</g>
		</g>
		
			<text transform="matrix(1 0 0 1 671.3307 173.1498)" display="inline" fill="#4CBEA2" font-family="'Roboto-Medium'" font-size="33">I love you</text>
	</g>
	<g id="belongs" display="inline">
		<g>
			<g>
				<polyline fill="none" stroke="#D1D3D4" stroke-width="6" stroke-miterlimit="10" points="747,122 747,128 741,128 				"/>
				
					<line fill="none" stroke="#D1D3D4" stroke-width="6" stroke-miterlimit="10" stroke-dasharray="11.6522,11.6522" x1="729.3" y1="128" x2="478.8" y2="128"/>
				<polyline fill="none" stroke="#D1D3D4" stroke-width="6" stroke-miterlimit="10" points="473,128 467,128 467,122 				"/>
				
					<line fill="none" stroke="#D1D3D4" stroke-width="6" stroke-miterlimit="10" stroke-dasharray="11.8889,11.8889" x1="467" y1="110.1" x2="467" y2="20.9"/>
				<polyline fill="none" stroke="#D1D3D4" stroke-width="6" stroke-miterlimit="10" points="467,15 467,9 473,9 				"/>
				
					<line fill="none" stroke="#D1D3D4" stroke-width="6" stroke-miterlimit="10" stroke-dasharray="11.6522,11.6522" x1="484.7" y1="9" x2="735.2" y2="9"/>
				<polyline fill="none" stroke="#D1D3D4" stroke-width="6" stroke-miterlimit="10" points="741,9 747,9 747,15 				"/>
				
					<line fill="none" stroke="#D1D3D4" stroke-width="6" stroke-miterlimit="10" stroke-dasharray="11.8889,11.8889" x1="747" y1="26.9" x2="747" y2="116.1"/>
			</g>
		</g>
	</g>
</g>
<g id="rsa_dist" display="none">
	<rect x="32.5" y="24.5" display="inline" fill="#3987C8" width="149" height="47"/>
	<rect x="32.5" y="143.5" display="inline" fill="#3987C8" width="149" height="47"/>
	<rect x="577.5" y="83.9" display="inline" fill="#4CBEA2" width="149" height="47"/>
	<g id="messages_copy">
		
			<text transform="matrix(1 0 0 1 330.1843 173.1501)" display="inline" fill="#3987C8" font-family="'Roboto-Medium'" font-size="33">Aoias3xa2pp9</text>
		
			<text transform="matrix(1 0 0 1 40.3309 173.1497)" display="inline" fill="#F1F2F2" font-family="'Roboto-Medium'" font-size="33">I love you</text>
		<g display="inline">
			<g>
				<line fill="none" stroke="#3987C8" stroke-width="6" stroke-miterlimit="10" x1="216" y1="164" x2="277.8" y2="164"/>
				<g>
					<polygon fill="#3987C8" points="274.3,176 295,164 274.3,152 					"/>
				</g>
			</g>
		</g>
		<g display="inline">
			<g>
				<line fill="none" stroke="#4CBEA2" stroke-width="6" stroke-miterlimit="10" x1="569.5" y1="164" x2="631.3" y2="164"/>
				<g>
					<polygon fill="#4CBEA2" points="627.8,176 648.5,164 627.8,152 					"/>
				</g>
			</g>
		</g>
		
			<text transform="matrix(1 0 0 1 671.3307 173.1498)" display="inline" fill="#4CBEA2" font-family="'Roboto-Medium'" font-size="33">I love you</text>
	</g>
	<g id="belongs_copy" display="inline">
		<g>
			<g>
				<polyline fill="none" stroke="#D1D3D4" stroke-width="6" stroke-miterlimit="10" points="790,161 790,167 784,167 				"/>
				
					<line fill="none" stroke="#D1D3D4" stroke-width="6" stroke-miterlimit="10" stroke-dasharray="11.6522,11.6522" x1="772.3" y1="167" x2="521.8" y2="167"/>
				<polyline fill="none" stroke="#D1D3D4" stroke-width="6" stroke-miterlimit="10" points="516,167 510,167 510,161 				"/>
				
					<line fill="none" stroke="#D1D3D4" stroke-width="6" stroke-miterlimit="10" stroke-dasharray="11.8889,11.8889" x1="510" y1="149.1" x2="510" y2="59.9"/>
				<polyline fill="none" stroke="#D1D3D4" stroke-width="6" stroke-miterlimit="10" points="510,54 510,48 516,48 				"/>
				
					<line fill="none" stroke="#D1D3D4" stroke-width="6" stroke-miterlimit="10" stroke-dasharray="11.6522,11.6522" x1="527.7" y1="48" x2="778.2" y2="48"/>
				<polyline fill="none" stroke="#D1D3D4" stroke-width="6" stroke-miterlimit="10" points="784,48 790,48 790,54 				"/>
				
					<line fill="none" stroke="#D1D3D4" stroke-width="6" stroke-miterlimit="10" stroke-dasharray="11.8889,11.8889" x1="790" y1="65.9" x2="790" y2="155.1"/>
			</g>
		</g>
	</g>
	<g id="person" display="inline">
		<path fill="#E6E7E8" d="M259.8,158.9c4.4-2.6,7.3-7.4,7.3-12.9c0-8.3-6.7-15.1-15.1-15.1s-15.1,6.7-15.1,15.1
			c0,5.5,2.9,10.3,7.3,12.9C229.8,162.5,229,176,229,176v23h46v-23C275,176,274.2,162.5,259.8,158.9z"/>
	</g>
	<g id="person_copy" display="inline">
		<path fill="#E6E7E8" d="M259.8,158.9c4.4-2.6,7.3-7.4,7.3-12.9c0-8.3-6.7-15.1-15.1-15.1s-15.1,6.7-15.1,15.1
			c0,5.5,2.9,10.3,7.3,12.9C229.8,162.5,229,176,229,176v23h46v-23C275,176,274.2,162.5,259.8,158.9z"/>
		<path fill="#E6E7E8" d="M259.8,41.9c4.4-2.6,7.3-7.4,7.3-12.9c0-8.3-6.7-15.1-15.1-15.1s-15.1,6.7-15.1,15.1
			c0,5.5,2.9,10.3,7.3,12.9C229.8,45.6,229,59,229,59v23h46V59C275,59,274.2,45.6,259.8,41.9z"/>
		<g>
			<g>
				<polyline fill="none" stroke="#3987C8" stroke-width="7" stroke-miterlimit="10" points="325,175 420.9,175 420.9,132 
					458.9,132 				"/>
				<g>
					<polygon fill="#3987C8" points="454.8,146 479,132 454.8,118 					"/>
				</g>
			</g>
		</g>
		<g>
			<g>
				<polyline fill="none" stroke="#3987C8" stroke-width="7" stroke-miterlimit="10" points="325,40.9 420.9,40.9 420.9,83.9 
					458.9,83.9 				"/>
				<g>
					<polygon fill="#3987C8" points="454.8,97.8 479,83.9 454.8,69.9 					"/>
				</g>
			</g>
		</g>
	</g>
</g>
<g id="Packet_formatting">
	<rect x="47.1" y="18.1" fill="#595A5C" width="750.9" height="169.2"/>
	<g id="message_1_">
		<rect x="71.1" y="96.2" fill="#818285" width="703.8" height="77.1"/>
		<rect x="71.1" y="96.2" fill="#818285" width="703.8" height="77.1"/>
		<rect x="429.5" y="111.7" fill="#A8AAAD" width="323.4" height="46.1"/>
		<text transform="matrix(1 0 0 1 532.9355 143.7676)" fill="#F2F2F2" font-family="'Roboto-Medium'" font-size="28.0329">MESSAGE</text>
	</g>
	<g id="Layer_29_1_">
		<rect x="446.5" y="33.1" fill="#3A87C8" width="328.4" height="46.1"/>
		<rect x="467.6" y="40.9" fill="#296FA0" width="104.1" height="30.4"/>
		<text transform="matrix(1 0 0 1 510.6602 67.1777)" fill="#F2F2F2" font-family="'Roboto-Medium'" font-size="28.0329">IP</text>
		<rect x="648.8" y="40.9" fill="#296FA0" width="104.1" height="30.4"/>
		<text transform="matrix(1 0 0 1 669.166 67.1777)" fill="#F2F2F2" font-family="'Roboto-Medium'" font-size="28.0329">PORT</text>
	</g>
	<g id="Layer_30_1_">
		<rect x="71.1" y="33.1" fill="#4EBFA2" width="328.4" height="46.1"/>
		<rect x="92.1" y="40.9" fill="#27A07D" width="104.1" height="30.4"/>
		<text transform="matrix(1 0 0 1 135.2192 67.1777)" fill="#F2F2F2" font-family="'Roboto-Medium'" font-size="28.0329">IP</text>
		<rect x="273.3" y="40.9" fill="#27A07D" width="104.1" height="30.4"/>
		<text transform="matrix(1 0 0 1 293.7241 67.1777)" fill="#F2F2F2" font-family="'Roboto-Medium'" font-size="28.0329">PORT</text>
	</g>
	<g id="Layer_30_copy_1_">
		<rect x="92.1" y="111.7" fill="#E16F50" width="328.4" height="46.1"/>
		<rect x="113.1" y="119.5" fill="#BE563C" width="104.1" height="30.4"/>
		<text transform="matrix(1 0 0 1 156.2437 145.7695)" fill="#F2F2F2" font-family="'Roboto-Medium'" font-size="28.0329">IP</text>
		<rect x="294.3" y="119.5" fill="#BE563C" width="104.1" height="30.4"/>
		<text transform="matrix(1 0 0 1 314.7485 145.7695)" fill="#F2F2F2" font-family="'Roboto-Medium'" font-size="28.0329">PORT</text>
	</g>
</g>
<g id="vpn" display="none">
	<circle display="inline" fill="#F1F2F2" cx="421" cy="127.5" r="33.5"/>
	
		<circle display="inline" fill="none" stroke="#F1F2F2" stroke-width="6" stroke-miterlimit="10" stroke-dasharray="12" cx="421" cy="127.5" r="50.5"/>
	<circle display="inline" fill="#F1F2F2" cx="120" cy="127.5" r="33.5"/>
	<circle display="inline" fill="#F1F2F2" cx="721.9" cy="127.5" r="33.5"/>
	
		<line display="inline" fill="none" stroke="#F1F2F2" stroke-width="7" stroke-miterlimit="10" x1="120" y1="127.5" x2="421" y2="127.5"/>
	<line fill="none" stroke="#F1F2F2" stroke-width="7" stroke-miterlimit="10" x1="420.9" y1="127.5" x2="721.9" y2="127.5"/>
	<g display="inline">
		<g>
			<line fill="none" stroke="#4CBEA2" stroke-width="7" stroke-miterlimit="10" x1="221" y1="94" x2="304.9" y2="94"/>
			<g>
				<polygon fill="#4CBEA2" points="301.9,104.5 320,94 301.9,83.5 				"/>
			</g>
		</g>
	</g>
	<g display="inline">
		<g>
			<line fill="none" stroke="#3987C8" stroke-width="7" stroke-miterlimit="10" x1="320" y1="166" x2="236.1" y2="166"/>
			<g>
				<polygon fill="#3987C8" points="239.1,155.5 221,166 239.1,176.5 				"/>
			</g>
		</g>
	</g>
	<g display="inline">
		<g>
			<line fill="none" stroke="#E26F50" stroke-width="7" stroke-miterlimit="10" x1="521.9" y1="94" x2="605.8" y2="94"/>
			<g>
				<polygon fill="#E26F50" points="602.7,104.5 620.9,94 602.7,83.5 				"/>
			</g>
		</g>
	</g>
	<g display="inline">
		<g>
			<line fill="none" stroke="#E26F50" stroke-width="7" stroke-miterlimit="10" x1="620.9" y1="166" x2="537" y2="166"/>
			<g>
				<polygon fill="#E26F50" points="540,155.5 521.9,166 540,176.5 				"/>
			</g>
		</g>
	</g>
	<text transform="matrix(1 0 0 1 393.3421 51)" display="inline" fill="#F1F2F2" font-family="'Roboto-Medium'" font-size="28">VPN</text>
	<text transform="matrix(1 0 0 1 683.8747 51)" display="inline" fill="#F1F2F2" font-family="'Roboto-Medium'" font-size="28">THEM</text>
	<text transform="matrix(1 0 0 1 91.9932 51)" display="inline" fill="#F1F2F2" font-family="'Roboto-Medium'" font-size="28">YOU</text>
</g>
</svg>
